<svg width="66" height="66" viewBox="0 0 66 66" fill="none" xmlns="http://www.w3.org/2000/svg">
  
  <!-- skills -->

  <g id="css">
    <path d="M49.5662 14.1254L16.864 14.1176L17.3921 20.5226L42.5155 20.5265L41.8821 27.1602H25.4059L26.0015 33.4441H41.34L40.4326 42.0499L33.2131 44.0142L25.8784 42.0362L25.4118 36.8821H18.9349L19.6537 46.2971L33.2131 50.4563L46.5442 46.7192L49.5643 14.1274L49.5662 14.1254ZM7.16248 3.34619H59.2677L54.5282 56.0131L33.1575 61.9646L11.906 56.0091L7.16248 3.34619Z" fill="#FD5956"/>
  </g>
  <g id="figma">
    <path d="M24.0017 6.19092C19.5053 6.19092 15.8602 9.83598 15.8602 14.3324C15.8602 18.8288 19.5053 22.4738 24.0017 22.4738H42.9984C47.4949 22.4738 51.1398 18.8288 51.1398 14.3324C51.1398 9.83598 47.4949 6.19092 42.9984 6.19092H24.0017Z" fill="#FD5956"/>
    <path d="M42.9984 25.1875C38.5019 25.1875 34.8569 28.8324 34.8569 33.3289C34.8569 37.8255 38.5019 41.4704 42.9984 41.4704C47.4949 41.4704 51.1398 37.8255 51.1398 33.3289C51.1398 28.8324 47.4949 25.1875 42.9984 25.1875Z" fill="#FD5956"/>
    <path d="M15.8602 33.3289C15.8602 28.8324 19.5053 25.1875 24.0017 25.1875H32.1431V41.4704H24.0017C19.5053 41.4704 15.8602 37.8255 15.8602 33.3289Z" fill="#FD5956"/>
    <path d="M24.0017 44.1843C19.5053 44.1843 15.8602 47.8293 15.8602 52.3258C15.8602 56.8223 19.5053 60.4672 24.0017 60.4672C28.4982 60.4672 32.1431 56.8223 32.1431 52.3258V44.1843H24.0017Z" fill="#FD5956"/>
  </g>
  <g id="git">
    <mask id="mask0_610_236" style="mask-type:luminance" maskUnits="userSpaceOnUse" x="0" y="0" width="65" height="65">
      <path d="M0 0H64.8412V65H0V0Z" fill="white"/>
    </mask>
    <g mask="url(#mask0_610_236)">
      <path d="M63.6196 29.6057L35.3084 1.22734C34.9206 0.838322 34.4601 0.529718 33.9533 0.319167C33.4464 0.108616 32.9031 0.000244141 32.3545 0.000244141C31.8059 0.000244141 31.2626 0.108616 30.7558 0.319167C30.2489 0.529718 29.7884 0.838322 29.4006 1.22734L23.5238 7.12132L30.9799 14.5956C31.8565 14.2972 32.7989 14.2506 33.7005 14.4611C34.6021 14.6716 35.427 15.1309 36.0818 15.7869C36.7403 16.4476 37.1999 17.2808 37.4082 18.1911C37.6165 19.1015 37.565 20.0522 37.2596 20.9345L44.4482 28.1386C45.3286 27.8321 46.2774 27.7804 47.1857 27.9896C48.0941 28.1988 48.9253 28.6604 49.584 29.3214C50.0454 29.7838 50.4114 30.3328 50.6611 30.9371C50.9108 31.5414 51.0394 32.189 51.0394 32.8431C51.0394 33.4972 50.9108 34.1448 50.6611 34.7491C50.4114 35.3534 50.0454 35.9024 49.584 36.3648C48.6511 37.299 47.3865 37.8237 46.068 37.8237C44.7495 37.8237 43.4849 37.299 42.552 36.3648C41.8591 35.6691 41.3869 34.7833 41.1951 33.8191C41.0032 32.8549 41.1002 31.8553 41.4738 30.9462L34.77 24.2281V41.9108C35.4776 42.2612 36.0917 42.7755 36.5615 43.4112C37.0313 44.0469 37.3433 44.7856 37.4716 45.5662C37.5998 46.3468 37.5408 47.1469 37.2992 47.9C37.0577 48.6532 36.6406 49.3378 36.0825 49.8972C35.6212 50.3598 35.0735 50.7267 34.4707 50.977C33.8679 51.2273 33.2218 51.3562 32.5694 51.3562C31.9169 51.3562 31.2708 51.2273 30.668 50.977C30.0653 50.7267 29.5176 50.3598 29.0562 49.8972C28.5947 49.4348 28.2286 48.8857 27.9788 48.2814C27.7291 47.677 27.6005 47.0293 27.6005 46.3751C27.6005 45.721 27.7291 45.0732 27.9788 44.4689C28.2286 43.8646 28.5947 43.3155 29.0562 42.853C29.5211 42.3861 30.0737 42.016 30.6821 41.7644V23.919C30.0762 23.6688 29.5256 23.3011 29.0619 22.837C28.5982 22.3729 28.2306 21.8215 27.9801 21.2146C27.7296 20.6076 27.6012 19.957 27.6023 19.3001C27.6034 18.6433 27.734 17.9931 27.9865 17.387L20.6349 10.016L1.22067 29.4727C0.438341 30.2585 -0.0010376 31.3234 -0.0010376 32.4335C-0.0010376 33.5437 0.438341 34.6085 1.22067 35.3943L29.5333 63.7762C30.3171 64.5603 31.3792 65.0006 32.4865 65.0006C33.5938 65.0006 34.6558 64.5603 35.4397 63.7762L63.6196 35.5273C64.4019 34.7415 64.8413 33.6767 64.8413 32.5665C64.8413 31.4563 64.4019 30.3915 63.6196 29.6057Z" fill="#FD5956"/>
    </g>
  </g>
  <g id="html">
    <path fill-rule="evenodd" clip-rule="evenodd" d="M24.7886 54.9658L36.447 8.88257L41.8857 10.4261L30.2275 56.5914L24.7886 54.9658Z" fill="#FD5956"/>
    <path fill-rule="evenodd" clip-rule="evenodd" d="M18.523 16.6982L22.5091 20.9191L11.3488 32.737L22.5091 44.5545L18.523 48.7755L3.37665 32.737L18.523 16.6982Z" fill="#FD5956"/>
    <path fill-rule="evenodd" clip-rule="evenodd" d="M48.4771 16.6982L44.4909 20.9191L55.6513 32.737L44.4909 44.5545L48.4771 48.7755L63.6233 32.737L48.4771 16.6982Z" fill="#FD5956"/> 
  </g>
  <g id="js">
    <path xmlns="http://www.w3.org/2000/svg" d="M55.6382 7H9.36672C7.50837 7 6 8.50837 6 10.3667V56.6333C6 58.4916 7.50837 60 9.36672 60H55.6333C57.4916 60 59 58.4916 59 56.6382V10.3667C59 8.50837 57.4916 7 55.6382 7ZM35.0238 47.6126C35.0238 52.6553 32.0662 54.9524 27.7481 54.9524C23.8441 54.9524 21.0295 52.3349 19.881 49.9048L23.8491 47.5042C24.6131 48.8597 25.7764 49.9048 27.4524 49.9048C29.0544 49.9048 29.9762 49.2787 29.9762 46.8437V30.9762H35.0238V47.6126ZM45.9718 54.9524C41.5009 54.9524 38.9623 52.6997 37.5476 49.9048L41.3333 47.381C42.3636 49.0668 43.4874 50.6787 45.8634 50.6787C47.8597 50.6787 48.9048 49.6829 48.9048 48.3027C48.9048 46.6563 47.8203 46.0698 45.6268 45.1085L44.424 44.591C40.9488 43.1122 38.637 41.2587 38.637 37.335C38.637 33.7267 41.3925 30.9762 45.6908 30.9762C48.752 30.9762 50.9504 32.0409 52.5377 34.8309L48.7914 37.2413C47.9633 35.7576 47.076 35.176 45.6908 35.176C44.2811 35.176 43.3889 36.0731 43.3889 37.2413C43.3889 38.6856 44.2811 39.2673 46.3464 40.1644L47.5492 40.682C51.6455 42.4319 53.9524 44.2213 53.9524 48.2436C53.9524 52.5764 50.5462 54.9524 45.9718 54.9524Z" fill="#FD5956"/>
  </g>
  <g id="react">
    <path d="M62.2821 32.5658C62.2821 28.7664 58.2114 25.2385 51.4268 22.796L50.2056 22.389V21.8462C51.6982 14.3832 50.6127 8.8199 47.2204 6.78454C43.8281 4.74918 38.8076 6.64885 33.3799 11.398L32.5658 12.2122L32.2944 11.9408H32.023C26.4597 6.78454 21.0321 5.02056 17.6398 6.92023C14.2475 8.8199 13.2977 14.1118 14.6546 21.0321C14.7974 21.4723 14.8884 21.9277 14.926 22.389L13.4334 22.9317C6.78455 25.2385 2.84952 28.7664 2.84952 32.5658C2.84952 36.3651 7.19162 40.1645 13.9762 42.6069L14.926 42.8783C14.7584 43.3587 14.6668 43.8623 14.6546 44.3709C13.2977 51.1554 14.5189 56.3117 17.6398 58.2113C20.7607 60.111 26.4597 58.347 31.8873 53.5979L32.7015 52.9194L33.787 54.0049C37.5864 57.2615 41.3857 59.0255 44.3709 59.0255C45.4239 59.0495 46.4611 58.7666 47.3561 58.2113C50.7484 56.3117 51.9696 50.7484 50.477 43.6924V43.4211C50.4184 43.1978 50.3731 42.9712 50.3413 42.7426H50.7484C57.94 40.1645 62.2821 36.5008 62.2821 32.5658ZM58.347 32.5658C58.347 34.1941 55.3619 37.0436 49.5271 38.9433H49.2558C48.5444 36.7605 47.683 34.6296 46.6776 32.5658C47.6275 30.3947 48.4416 28.2237 49.1201 26.1883L50.2056 26.4597C55.6332 28.3594 58.347 30.9375 58.347 32.5658ZM36.3651 51.0197L35.2796 50.2056C36.8333 48.4841 38.2832 46.6717 39.6217 44.778L46.5419 43.6924C46.6776 43.9638 46.6776 44.2352 46.8133 44.3709C47.2968 46.8287 47.3884 49.3475 47.0847 51.8339C46.894 53.023 46.3227 54.1181 45.4564 54.9548C44.0995 55.7689 40.4359 54.6834 36.3651 51.0197ZM34.6012 45.0493L32.7015 47.4918L30.5304 45.0493H34.6012ZM16.0115 26.0526C16.6935 28.2898 17.5557 30.4679 18.5896 32.5658C17.5549 34.71 16.6928 36.9333 16.0115 39.2146L15.1974 38.9433C12.8212 38.1933 10.6105 36.9958 8.68422 35.4153C8.18544 35.1001 7.75855 34.6835 7.43127 34.1926C7.10399 33.7017 6.88364 33.1474 6.78455 32.5658C6.78455 30.9375 9.49837 28.3594 14.6546 26.5954L16.0115 26.0526ZM30.5304 20.0822L32.5658 17.7755L34.6012 20.0822H30.5304ZM45.4564 10.1768C46.949 10.991 47.7632 15.0617 46.5419 21.0321C46.5482 21.1056 46.5394 21.1796 46.516 21.2496C46.4927 21.3196 46.4554 21.3841 46.4063 21.4391L39.6217 20.3536C38.2832 18.4599 36.8333 16.6475 35.2796 14.926L36.0938 14.2475C40.4359 10.4482 43.9638 9.36266 45.4564 10.1768ZM22.7961 24.56L21.7105 26.324L20.7607 28.088C20.3536 27.1382 20.0822 26.1883 19.6752 25.1028L22.7961 24.56ZM19.6752 40.0288C20.0822 39.0789 20.3536 38.1291 20.7607 37.0436L21.7105 38.8076L22.7961 40.5715L19.6752 40.0288ZM42.3355 32.5658C41.645 34.0535 40.875 35.5029 40.0288 36.9079C39.2146 38.4005 38.2648 39.7574 37.4507 41.1143H27.6809C26.7311 39.6217 25.7813 38.2648 25.1028 36.9079C24.2499 35.5067 23.4797 34.0569 22.7961 32.5658C23.4545 31.0624 24.2256 29.6109 25.1028 28.2237C25.8824 26.8179 26.7432 25.4586 27.6809 24.153C30.9319 23.8817 34.1997 23.8817 37.4507 24.153C38.4005 25.5099 39.2146 26.8668 40.0288 28.2237C40.906 29.6109 41.6771 31.0624 42.3355 32.5658ZM43.4211 26.324L42.3355 24.56L45.4564 25.2385C45.1543 26.21 44.7917 27.1617 44.3709 28.088L43.4211 26.324ZM42.3355 40.5715L43.4211 38.8076L44.3709 36.9079L45.5921 40.0288L42.3355 40.5715ZM29.7163 14.7903H29.852L25.5099 20.2179L18.7253 21.3035C18.5896 20.8964 18.5896 20.625 18.454 20.2179C17.3684 14.6546 18.1826 10.8553 19.5395 10.1768C19.8997 9.94019 20.3341 9.84365 20.7607 9.90543C22.6604 9.90543 25.9169 11.2623 29.5806 14.5189L29.7163 14.7903ZM18.454 45.0493C18.4787 44.6304 18.5703 44.2181 18.7253 43.8281L25.6456 44.778C26.9501 46.6969 28.4019 48.5116 29.9877 50.2056L29.7163 50.477L29.4449 50.7484C27.595 52.462 25.4288 53.7986 23.0674 54.6834C22.5494 54.9547 21.9819 55.1186 21.399 55.1653C20.8161 55.2119 20.2297 55.1403 19.6752 54.9548C18.1826 54.1406 17.3684 50.477 18.454 45.0493Z" fill="#FD5956"/>
    <path d="M32.5658 26.5953C31.3796 26.5683 30.2122 26.8954 29.2127 27.5349C28.2132 28.1743 27.4269 29.097 26.9541 30.1853C26.4813 31.2736 26.3436 32.4781 26.5584 33.645C26.7732 34.812 27.3308 35.8884 28.1602 36.7371C28.9895 37.5857 30.0528 38.1679 31.2145 38.4095C32.3762 38.6511 33.5836 38.541 34.6824 38.0934C35.7813 37.6458 36.7219 36.8809 37.3841 35.8963C38.0464 34.9118 38.4002 33.7522 38.4005 32.5657C38.4009 31.0055 37.7906 29.5071 36.7001 28.3912C35.6096 27.2754 34.1256 26.6308 32.5658 26.5953Z" fill="#FD5956"/>
  </g>
  <g id="redux">
    <path xmlns="http://www.w3.org/2000/svg" d="M37.2149 56.8228C38.1912 56.1254 39.5857 55.0095 40.3527 54.312C53.722 59.6246 58.0838 49.2411 57.7355 45.2781C57.3499 40.8899 51.9027 28.3668 33.38 28.3665C32.509 30.4084 29.9622 31.4327 27.8556 30.2122C25.2705 28.7144 25.2705 24.9497 27.8556 23.4519C29.8638 22.2884 32.2719 23.1653 33.247 25.0187C44.4924 24.9615 57.0995 29.7389 60.6249 43.0322C63.1675 52.6194 52.5002 63.7956 37.2149 56.8228ZM44.1336 43.2636C45.994 43.0443 47.6068 41.4911 47.6068 39.3864C47.6068 36.3909 44.3407 34.5085 41.7418 36.0062C39.462 37.3202 39.1827 40.3783 40.9028 42.1205C34.7323 53.6279 20.951 58.1274 13.6786 53.7597C9.65141 51.3411 5.49844 42.6827 15.1806 34.7134C14.9016 33.8067 14.4833 32.2723 14.2741 31.1563C-3.13335 44.2774 9.39723 65.1554 29.0244 57.0249C34.3308 54.8267 40.0843 50.9849 44.1336 43.2636ZM22.9066 47.7184C25.5091 49.2162 28.7798 47.3338 28.7798 44.3383C28.7798 41.8385 26.502 40.1157 24.2356 40.4838C9.83946 13.5869 40.149 -2.38581 44.0484 23.0658L47.5348 24.112C44.9998 3.63869 29.6957 5.51203 24.7929 9.65854C21.1185 12.7663 11.2959 23.7015 21.4443 42.433C20.4664 44.1942 20.9537 46.5945 22.9066 47.7184Z" fill="#FD5956"/>
  </g>
  <g id="styledComponents">
    <path xmlns="http://www.w3.org/2000/svg" d="M49.3935 9L49.0414 10.8232C48.4968 14.2784 48.694 15.267 50.1869 16.5493L51.6282 17.7336L50.1352 24.3456C49.2432 28.2905 48.1494 31.5965 47.4545 32.6829C46.8583 33.6202 46.1635 35.0004 46.0133 35.7418C45.7645 36.6278 44.9194 37.5184 43.6283 38.3064C42.4875 38.9499 40.2481 40.6752 38.6613 42.0601C37.3937 43.1931 36.5205 43.8879 36.0464 44.1863L34.4971 45.4034C33.9994 46.1961 33.7178 46.8349 33.6098 47.3198C33.5018 47.8188 33.5628 48.1498 33.7225 48.3923C33.8774 48.6254 34.145 48.7886 34.5112 48.8912C34.9447 48.9921 35.3909 49.0283 35.8351 48.9985C36.8401 48.9303 37.8348 48.7552 38.8022 48.4762C39.1308 48.3876 39.389 48.3037 39.6143 48.2291C39.9618 47.8048 40.7646 47.0027 42.1871 45.6085C45.9616 41.9108 47.4029 39.8871 45.9147 40.4327C45.3654 40.6285 45.6142 40.1343 46.5579 39.1457C48.5484 37.22 49.6892 34.3103 52.0742 25.185C53.9615 17.9808 53.9615 17.8782 55.3511 17.8782C56.0037 17.8782 57.8487 17.9901 57.8487 17.9901V9H53.614H49.3935ZM32.6708 24.4109C31.3 24.4016 28.3517 26.4766 19.5256 33.6342C19.1453 34.5341 19.1125 35.1543 19.2862 35.5553C19.3988 35.8304 19.6054 36.0216 19.8918 36.1615C20.1735 36.3014 20.5397 36.3853 20.9434 36.4179C21.7462 36.4879 22.6945 36.362 23.4598 36.2128L23.9762 36.0962C24.153 35.8607 24.3851 35.6718 24.6522 35.546C25.1968 35.2475 27.4832 33.1772 29.7695 30.9577C33.7929 26.9102 34.7365 25.0824 33.0981 24.4902C32.9637 24.4371 32.8155 24.4102 32.6708 24.4109ZM42.9805 27.2227C41.7739 27.2553 39.6003 28.6449 35.8773 31.5965C34.0088 33.1026 32.8258 33.9139 32.192 34.0818L29.7319 36.0123C28.8071 37.6909 28.6709 38.7307 28.9151 39.3043C28.9762 39.4458 29.0649 39.5738 29.1761 39.6811C29.2873 39.7883 29.4187 39.8726 29.5629 39.9291C29.9216 40.0698 30.304 40.141 30.6897 40.1389C31.6111 40.1292 32.5271 39.9959 33.4126 39.7426C33.8741 39.6196 34.3299 39.4764 34.7788 39.3136L34.9149 39.2576L35.1637 39.1271C35.6332 38.5256 36.713 37.3925 38.0651 36.0869C42.3373 31.9928 44.5203 29.0832 44.0743 27.9967C43.8725 27.4698 43.5251 27.204 42.9805 27.2227ZM31.6004 32.2586C31.253 32.2959 30.4737 32.8928 29.07 34.1144C27.0419 35.8957 24.8306 36.9215 24.0654 36.4646C23.8876 36.5045 23.7091 36.5418 23.5302 36.5765C22.7509 36.7303 21.7791 36.8562 20.9105 36.7863C20.5013 36.7617 20.1002 36.6621 19.7275 36.4925C19.3759 36.3329 19.0953 36.0509 18.9388 35.6998C18.765 35.2802 18.765 34.7579 18.9622 34.0911L15.9106 36.5811L9.0047 42.2559V51.4558L31.6333 33.7507C31.6289 33.5569 31.6542 33.3635 31.7084 33.1772C31.8821 32.5524 31.8727 32.2353 31.6004 32.2633V32.2586ZM41.3373 35.2382C40.9946 35.2382 40.4218 35.7185 39.5064 36.6837C38.2623 38.0033 36.3046 39.281 35.267 39.5421L35.1074 39.626C34.9371 39.6959 34.7649 39.7612 34.591 39.8219C34.3093 39.9151 33.9431 40.027 33.5206 40.1389C32.6755 40.3674 31.6239 40.5773 30.685 40.5539C30.2423 40.5534 29.8039 40.4679 29.3939 40.3021C29.0075 40.1439 28.6978 39.8431 28.5301 39.4628C28.2578 38.8147 28.3658 37.9054 28.962 36.6138L9 52.2299V57.8487H17.7698L36.3703 43.3377C36.8538 42.8061 37.5815 42.0787 38.5627 41.1694C41.1918 38.7494 41.788 37.9147 41.788 36.6791C41.788 35.7185 41.68 35.2335 41.3373 35.2335V35.2382ZM45.7644 44.3309L44.1729 45.907C43.2809 46.7463 41.6894 47.7815 40.6002 48.2244L40.3843 48.3177L40.3702 48.341L40.3233 48.3876C40.281 48.4203 40.2622 48.4249 40.2294 48.4389C39.7946 48.6024 39.3528 48.7471 38.9054 48.8726C37.9107 49.1602 36.8876 49.3399 35.8539 49.4088C35.3651 49.4399 34.8745 49.3975 34.3985 49.2829C33.9854 49.1926 33.6208 48.9534 33.375 48.6114C33.1497 48.2664 33.084 47.8048 33.2107 47.2359C33.3116 46.8309 33.4613 46.4395 33.6567 46.0702L18.6477 57.8487H38.6097L40.9946 55.1349C44.2715 51.3393 45.7644 48.6254 45.7644 46.3033V44.3309Z" fill="#FD5956"/>
  </g>
  <g id="ts">
    <path d="M6.51318 32.5658V58.6184H58.6184V6.51318H6.51318V32.5658ZM48.5035 30.4903C49.8278 30.8203 50.8352 31.4086 51.7623 32.3682C52.2421 32.8806 52.9542 33.8142 53.0106 34.04C53.028 34.1051 50.7614 35.6248 49.3893 36.478C49.3394 36.5106 49.1396 36.2957 48.9182 35.9657C48.2452 34.9887 47.5439 34.5675 46.4692 34.4937C44.8887 34.3852 43.8727 35.2123 43.8813 36.5931C43.8669 36.9327 43.9434 37.2699 44.1028 37.5701C44.4502 38.2887 45.0971 38.7207 47.1206 39.5957C50.8526 41.2023 52.4483 42.2596 53.4405 43.7641C54.5477 45.4423 54.7974 48.1236 54.044 50.1166C53.219 52.2833 51.1674 53.7553 48.2799 54.2416C47.3876 54.4001 45.2708 54.3762 44.3112 54.2025C42.2183 53.8291 40.234 52.7957 39.0095 51.4388C38.5297 50.9112 37.594 49.5282 37.6526 49.4305C37.6765 49.3958 37.8914 49.2634 38.1302 49.1244C38.3647 48.992 39.2396 48.4861 40.0668 48.0063L41.5648 47.1379L41.8796 47.6025C42.3182 48.2712 43.2756 49.1896 43.8553 49.4957C45.5183 50.3728 47.8001 50.249 48.9247 49.2395C49.1508 49.049 49.3299 48.8088 49.4477 48.5376C49.5656 48.2664 49.6192 47.9716 49.6042 47.6763C49.6042 47.0728 49.5282 46.8079 49.2134 46.352C48.8096 45.7745 47.9825 45.2882 45.6334 44.2678C42.9456 43.1106 41.7884 42.392 40.729 41.25C40.0677 40.4964 39.5794 39.6072 39.2982 38.6448C39.1007 37.9088 39.0507 36.0634 39.2071 35.3209C39.7607 32.7221 41.7211 30.9136 44.55 30.3752C45.4684 30.2015 47.6025 30.2667 48.5035 30.4903ZM36.2718 32.6657L36.2892 34.7998H29.5046V54.0701H24.7066V34.7998H17.9286V32.7069C17.9286 31.5476 17.9525 30.5793 17.985 30.5576C18.0111 30.5229 22.1382 30.5055 27.1404 30.5142L36.2479 30.5402L36.2718 32.6657Z" fill="#FD5956"/>
  </g>

  <!-- social -->

  <g id="gitHub">
    <path d="M10.1367 20.9375C10.1888 20.8594 10.1693 20.7747 10.0781 20.6836C9.96094 20.5924 9.86979 20.5794 9.80469 20.6445C9.7526 20.7227 9.77214 20.8073 9.86328 20.8984C9.98047 20.9896 10.0716 21.0026 10.1367 20.9375ZM9.58984 20.1367C9.52474 20.0456 9.44661 20.0195 9.35547 20.0586C9.27734 20.1107 9.27734 20.1888 9.35547 20.293C9.44661 20.3971 9.52474 20.4297 9.58984 20.3906C9.66797 20.3385 9.66797 20.2539 9.58984 20.1367ZM8.78906 19.3555C8.8151 19.3034 8.78255 19.2513 8.69141 19.1992C8.60026 19.1732 8.54818 19.1862 8.53516 19.2383C8.49609 19.3034 8.52214 19.3555 8.61328 19.3945C8.71745 19.4206 8.77604 19.4076 8.78906 19.3555ZM9.19922 19.8047C9.22526 19.7917 9.23503 19.7624 9.22852 19.7168C9.22201 19.6712 9.19922 19.6354 9.16016 19.6094C9.08203 19.5182 9.01693 19.4987 8.96484 19.5508C8.91276 19.6029 8.91927 19.6745 8.98438 19.7656C9.0625 19.8438 9.13411 19.8568 9.19922 19.8047ZM10.8789 21.2695C10.9049 21.1784 10.8464 21.1068 10.7031 21.0547C10.5859 21.0156 10.5013 21.0417 10.4492 21.1328C10.4232 21.224 10.4818 21.2956 10.625 21.3477C10.7422 21.3867 10.8268 21.3607 10.8789 21.2695ZM11.6992 21.3281C11.6992 21.224 11.6211 21.1719 11.4648 21.1719C11.3346 21.1719 11.2695 21.224 11.2695 21.3281C11.2695 21.4323 11.3411 21.4844 11.4844 21.4844C11.6276 21.4844 11.6992 21.4323 11.6992 21.3281ZM12.4609 21.1914C12.4349 21.1003 12.3503 21.0677 12.207 21.0938C12.0638 21.1198 12.0052 21.1784 12.0312 21.2695C12.0573 21.3737 12.1354 21.4128 12.2656 21.3867C12.3958 21.3607 12.4609 21.2956 12.4609 21.1914ZM25 15C25 12.2396 24.0234 9.88281 22.0703 7.92969C20.1172 5.97656 17.7604 5 15 5C12.2396 5 9.88281 5.97656 7.92969 7.92969C5.97656 9.88281 5 12.2396 5 15C5 17.1745 5.63802 19.1309 6.91406 20.8691C8.1901 22.6074 9.83073 23.8151 11.8359 24.4922C12.0703 24.5312 12.2428 24.4987 12.3535 24.3945C12.4642 24.2904 12.5195 24.1602 12.5195 24.0039C12.5195 23.3268 12.513 22.7083 12.5 22.1484C12.4219 22.1615 12.321 22.1777 12.1973 22.1973C12.0736 22.2168 11.8424 22.2298 11.5039 22.2363C11.1654 22.2428 10.8529 22.2168 10.5664 22.1582C10.2799 22.0996 9.99674 21.9694 9.7168 21.7676C9.43685 21.5658 9.24479 21.2956 9.14062 20.957C8.84115 20.1888 8.47005 19.707 8.02734 19.5117C8.0013 19.4987 7.97201 19.4759 7.93945 19.4434L7.7832 19.2871L7.64648 19.1016L7.72461 18.9551L8.10547 18.8867C8.18359 18.8867 8.28125 18.8997 8.39844 18.9258C8.51562 18.9518 8.71094 19.0527 8.98438 19.2285C9.25781 19.4043 9.47266 19.6354 9.62891 19.9219C9.83724 20.2865 10.0814 20.5599 10.3613 20.7422C10.6413 20.9245 10.9245 21.0156 11.2109 21.0156C11.4974 21.0156 11.7448 20.9928 11.9531 20.9473C12.1615 20.9017 12.3568 20.8398 12.5391 20.7617C12.6302 20.1497 12.8451 19.7005 13.1836 19.4141C12.5456 19.3359 11.9857 19.2155 11.5039 19.0527C11.0221 18.89 10.5469 18.6361 10.0781 18.291C9.60938 17.946 9.24805 17.4512 8.99414 16.8066C8.74023 16.1621 8.61328 15.3841 8.61328 14.4727C8.61328 13.444 8.95833 12.5521 9.64844 11.7969C9.33594 10.9896 9.36849 10.1042 9.74609 9.14062C9.99349 9.0625 10.3483 9.11133 10.8105 9.28711C11.2728 9.46289 11.6667 9.65495 11.9922 9.86328L12.5 10.1758C13.2552 9.95443 14.0885 9.84375 15 9.84375C15.9115 9.84375 16.7448 9.95443 17.5 10.1758C17.6432 10.0846 17.8288 9.96745 18.0566 9.82422C18.2845 9.68099 18.6458 9.51172 19.1406 9.31641C19.6354 9.12109 20.0065 9.0625 20.2539 9.14062C20.6315 10.1042 20.6641 10.9896 20.3516 11.7969C21.0417 12.5521 21.3867 13.444 21.3867 14.4727C21.3867 15.2148 21.2956 15.8691 21.1133 16.4355C20.931 17.002 20.6999 17.4577 20.4199 17.8027C20.14 18.1478 19.7917 18.4375 19.375 18.6719C18.9583 18.9062 18.5514 19.0755 18.1543 19.1797C17.7572 19.2839 17.3112 19.362 16.8164 19.4141C17.2721 19.8177 17.5 20.4362 17.5 21.2695C17.5 21.7904 17.4967 22.3698 17.4902 23.0078C17.4837 23.6458 17.4805 23.9779 17.4805 24.0039C17.4805 24.1602 17.5358 24.2904 17.6465 24.3945C17.7572 24.4987 17.9297 24.5312 18.1641 24.4922C20.1693 23.8151 21.8099 22.6074 23.0859 20.8691C24.362 19.1309 25 17.1745 25 15ZM30 5.625V24.375C30 25.9245 29.4499 27.2493 28.3496 28.3496C27.2493 29.4499 25.9245 30 24.375 30H5.625C4.07552 30 2.75065 29.4499 1.65039 28.3496C0.55013 27.2493 0 25.9245 0 24.375V5.625C0 4.07552 0.55013 2.75065 1.65039 1.65039C2.75065 0.55013 4.07552 0 5.625 0H24.375C25.9245 0 27.2493 0.55013 28.3496 1.65039C29.4499 2.75065 30 4.07552 30 5.625Z" fill="currentColor"/>
  </g>
  <g id="instagram">
    <path d="M15.8454 8.99808C13.0733 8.99808 10.8111 11.0211 10.8111 13.5C10.8111 15.9789 13.0733 18.0019 15.8454 18.0019C18.6175 18.0019 20.8797 15.9789 20.8797 13.5C20.8797 11.0211 18.6175 8.99808 15.8454 8.99808ZM30.9445 13.5C30.9445 11.6357 30.9634 9.78837 30.8464 7.92748C30.7293 5.76602 30.1779 3.84773 28.4104 2.26716C26.6391 0.683215 24.4978 0.19351 22.0807 0.0888138C19.996 -0.0158819 17.9301 0.00100455 15.8492 0.00100455C13.7645 0.00100455 11.6986 -0.0158819 9.61767 0.0888138C7.20059 0.19351 5.05544 0.686593 3.28796 2.26716C1.5167 3.85111 0.969079 5.76602 0.852002 7.92748C0.734925 9.79174 0.753809 11.6391 0.753809 13.5C0.753809 15.3609 0.734925 17.2116 0.852002 19.0725C0.969079 21.234 1.52047 23.1523 3.28796 24.7328C5.05922 26.3168 7.20059 26.8065 9.61767 26.9112C11.7024 27.0159 13.7682 26.999 15.8492 26.999C17.9339 26.999 19.9997 27.0159 22.0807 26.9112C24.4978 26.8065 26.6429 26.3134 28.4104 24.7328C30.1817 23.1489 30.7293 21.234 30.8464 19.0725C30.9672 17.2116 30.9445 15.3643 30.9445 13.5V13.5ZM15.8454 20.4268C11.5589 20.4268 8.09944 17.3332 8.09944 13.5C8.09944 9.66679 11.5589 6.57319 15.8454 6.57319C20.1319 6.57319 23.5914 9.66679 23.5914 13.5C23.5914 17.3332 20.1319 20.4268 15.8454 20.4268ZM23.9086 7.90722C22.9078 7.90722 22.0996 7.18448 22.0996 6.2895C22.0996 5.39452 22.9078 4.67179 23.9086 4.67179C24.9094 4.67179 25.7176 5.39452 25.7176 6.2895C25.7179 6.50202 25.6713 6.7125 25.5805 6.90889C25.4897 7.10528 25.3565 7.28373 25.1884 7.434C25.0204 7.58427 24.8209 7.70342 24.6012 7.78462C24.3816 7.86583 24.1463 7.90749 23.9086 7.90722V7.90722Z" fill="currentColor"/>
  </g>
  <g id="linkedin">
    <path d="M7.38572 28H0.894106V9.306H7.38572V28ZM4.136 6.756C2.06047 6.756 0.376343 5.218 0.376343 3.362C0.376343 2.47034 0.772448 1.6152 1.47752 0.984707C2.18259 0.35421 3.13888 0 4.136 0C5.13312 0 6.0894 0.35421 6.79448 0.984707C7.49955 1.6152 7.89565 2.47034 7.89565 3.362C7.89565 5.218 6.21153 6.756 4.136 6.756ZM31.6815 28H25.2044V18.9C25.2044 16.731 25.1552 13.95 21.8294 13.95C18.4545 13.95 17.9367 16.306 17.9367 18.744V28H11.4518V9.306H17.6772V11.856H17.7678C18.6345 10.387 20.7514 8.837 23.9094 8.837C30.4793 8.837 31.6871 12.706 31.6871 17.731V28H31.6815Z" fill="currentColor"/>
  </g>
  <g id="telegram">
    <rect width="30" height="30" rx="14" fill="currentColor"/>
    <path d="M20.7246 9.41159L18.6964 18.9766C18.5433 19.6516 18.1443 19.8196 17.5774 19.5018L14.4868 17.2244L12.9958 18.6588C12.8306 18.824 12.6929 18.9617 12.3746 18.9617L12.5969 15.8145L18.3243 10.6391C18.5735 10.4173 18.2701 10.2939 17.9374 10.5162L10.8567 14.9749L7.80835 14.0206C7.1454 13.8137 7.1334 13.3576 7.94661 13.0393L19.8696 8.44573C20.4217 8.23883 20.9046 8.56814 20.7246 9.41159Z" fill="white"/>
  </g>

  <!-- graphics -->

  <g id="ornament">
    <g filter="url(#filter0_dd_501_771)">
      <path fill-rule="evenodd" clip-rule="evenodd" d="M46.9999 40C49.7613 40 51.9999 37.7614 51.9999 35C51.9999 32.2386 49.7613 30 46.9999 30C44.2385 30 41.9999 32.2386 41.9999 35C41.9999 37.7614 44.2385 40 46.9999 40ZM46.9999 90C49.7613 90 51.9999 87.7614 51.9999 85C51.9999 82.2386 49.7613 80 46.9999 80C44.2385 80 41.9999 82.2386 41.9999 85C41.9999 87.7614 44.2385 90 46.9999 90ZM51.9999 135C51.9999 137.761 49.7613 140 46.9999 140C44.2385 140 41.9999 137.761 41.9999 135C41.9999 132.239 44.2385 130 46.9999 130C49.7613 130 51.9999 132.239 51.9999 135ZM46.9999 190C49.7613 190 51.9999 187.761 51.9999 185C51.9999 182.239 49.7613 180 46.9999 180C44.2385 180 41.9999 182.239 41.9999 185C41.9999 187.761 44.2385 190 46.9999 190ZM51.9999 235C51.9999 237.761 49.7613 240 46.9999 240C44.2385 240 41.9999 237.761 41.9999 235C41.9999 232.239 44.2385 230 46.9999 230C49.7613 230 51.9999 232.239 51.9999 235ZM46.9999 290C49.7613 290 51.9999 287.761 51.9999 285C51.9999 282.239 49.7613 280 46.9999 280C44.2385 280 41.9999 282.239 41.9999 285C41.9999 287.761 44.2385 290 46.9999 290ZM102 35C102 37.7614 99.7613 40 96.9999 40C94.2385 40 91.9999 37.7614 91.9999 35C91.9999 32.2386 94.2385 30 96.9999 30C99.7613 30 102 32.2386 102 35ZM96.9999 90C99.7613 90 102 87.7614 102 85C102 82.2386 99.7613 80 96.9999 80C94.2385 80 91.9999 82.2386 91.9999 85C91.9999 87.7614 94.2385 90 96.9999 90ZM102 135C102 137.761 99.7613 140 96.9999 140C94.2385 140 91.9999 137.761 91.9999 135C91.9999 132.239 94.2385 130 96.9999 130C99.7613 130 102 132.239 102 135ZM96.9999 190C99.7613 190 102 187.761 102 185C102 182.239 99.7613 180 96.9999 180C94.2385 180 91.9999 182.239 91.9999 185C91.9999 187.761 94.2385 190 96.9999 190ZM102 235C102 237.761 99.7613 240 96.9999 240C94.2385 240 91.9999 237.761 91.9999 235C91.9999 232.239 94.2385 230 96.9999 230C99.7613 230 102 232.239 102 235ZM96.9999 290C99.7613 290 102 287.761 102 285C102 282.239 99.7613 280 96.9999 280C94.2385 280 91.9999 282.239 91.9999 285C91.9999 287.761 94.2385 290 96.9999 290Z" fill="#FD5956"/>
    </g>
    <defs>
      <filter id="filter0_dd_501_771" x="-0.00012207" y="0" width="144" height="344" filterUnits="userSpaceOnUse" color-interpolation-filters="sRGB">
        <feFlood flood-opacity="0" result="BackgroundImageFix"/>
        <feColorMatrix in="SourceAlpha" type="matrix" values="0 0 0 0 0 0 0 0 0 0 0 0 0 0 0 0 0 0 127 0" result="hardAlpha"/>
        <feOffset dy="12"/>
        <feGaussianBlur stdDeviation="21"/>
        <feColorMatrix type="matrix" values="0 0 0 0 1 0 0 0 0 0.403922 0 0 0 0 0 0 0 0 0.22 0"/>
        <feBlend mode="normal" in2="BackgroundImageFix" result="effect1_dropShadow_501_771"/>
        <feColorMatrix in="SourceAlpha" type="matrix" values="0 0 0 0 0 0 0 0 0 0 0 0 0 0 0 0 0 0 127 0" result="hardAlpha"/>
        <feOffset dy="8"/>
        <feGaussianBlur stdDeviation="9"/>
        <feColorMatrix type="matrix" values="0 0 0 0 1 0 0 0 0 0.403922 0 0 0 0 0 0 0 0 0.32 0"/>
        <feBlend mode="normal" in2="effect1_dropShadow_501_771" result="effect2_dropShadow_501_771"/>
        <feBlend mode="normal" in="SourceGraphic" in2="effect2_dropShadow_501_771" result="shape"/>
      </filter>
    </defs>
  </g>
  <g id="rectangleLeft">
    <rect opacity="0.5" x="-92" y="1309.65" width="1618.49" height="506" rx="253" transform="rotate(-60 -92 1309.65)" fill="url(#paint0_linear_501_770)"/>
    <defs>
      <linearGradient id="paint0_linear_501_770" x1="-83.657" y1="1830.8" x2="1007.68" y2="2119.13" gradientUnits="userSpaceOnUse">
        <stop stop-color="#FDC1C5" stop-opacity="0"/>
       <stop offset="0.734375" stop-color="#FDC1C5"/>
      </linearGradient>
    </defs>
  </g>
  <g id="rectangleRight">
    <rect opacity="0.5" x="-92" y="1309.65" width="1618.49" height="506" rx="253" transform="rotate(-60 -92 1309.65)" fill="url(#paint0_linear_501_770)"/>
    <defs>
      <linearGradient id="paint0_linear_501_770" x1="-83.657" y1="1830.8" x2="1007.68" y2="2119.13" gradientUnits="userSpaceOnUse">
        <stop stop-color="#FDC1C5" stop-opacity="0"/>
        <stop offset="0.734375" stop-color="#FDC1C5"/>
      </linearGradient>
    </defs>
  </g>
  <g id="rectangle">
    <g style="mix-blend-mode:luminosity" opacity="0.3">
      <path opacity="0.92" d="M968.5 1388L1227.5 1163L1532.5 420.5L1286 1326.5L968.5 1388Z" fill="#EBEBEB"/>
      <path opacity="0.43" d="M384.185 1083.23L692.272 346.044L860.793 637.93L384.185 1083.23Z" fill="#FD5956"/>
      <path opacity="0.43" d="M1532.59 420.202L1065.19 881.456L902.658 599.937L1532.59 420.202Z" fill="#EEBB98"/>
      <path opacity="0.63" d="M1532.59 420.202L1227.73 1162.98L1065.19 881.456L1532.59 420.202Z" fill="#FFE3D0"/>
      <path opacity="0.43" d="M1532.59 420.202L692.272 346.044L848.131 616L1532.59 420.202Z" fill="#D8600F"/>
      <path opacity="0.43" d="M384.185 1083.24L1065.19 881.456L902.657 599.937L384.185 1083.24Z" fill="#EAAA7F"/>
      <path opacity="0.43" d="M384.184 1083.23L968.5 1388L1227.73 1162.98L1065.19 881.456L384.184 1083.23Z" fill="#EEBB98"/>
      <path d="M384 1083.5L968.5 1388V1452L384 1083.5Z" fill="#C0C0C0"/>
      <path d="M1286 1326.5L968.5 1452L968.5 1388L1286 1326.5Z" fill="#DADADA"/>
    </g>
    <path d="M-469 955.171C-175 620.973 -79.4389 1125.36 158 1054.14C378.5 988 626.147 491.985 853.961 620.973C1533.11 1005.51 1045 1194.64 853.961 1128.56C628.309 1050.51 482.825 545.464 1194.8 620.973C1391.32 641.815 1437.76 1101.09 1601 1194.64C1910.89 1372.23 1876.5 817.5 2389 1395.64" stroke="#FD5956" stroke-width="3" stroke-dasharray="12 12"/>
  </g>
    <g id="vector_dotted">
      <path d="M7.29289 260.679C7.68342 260.288 8.31658 260.288 8.70711 260.679L15.0711 267.043C15.4616 267.433 15.4616 268.066 15.0711 268.457C14.6805 268.847 14.0474 268.847 13.6569 268.457L8 262.8L2.34315 268.457C1.95262 268.847 1.31946 268.847 0.928932 268.457C0.538408 268.066 0.538408 267.433 0.928932 267.043L7.29289 260.679ZM455 395.386L454.353 394.624L455 395.386ZM581.189 380.882L581.032 379.895L581.189 380.882ZM283.5 209.386V210.386V209.386ZM9 261.386C9 263.58 9.01695 265.729 9.05058 267.833L7.05083 267.865C7.01703 265.75 7 263.59 7 261.386H9ZM9.45045 279.936C9.67431 284.288 9.98025 288.421 10.3652 292.343L8.37474 292.539C7.98655 288.583 7.67841 284.419 7.45309 280.039L9.45045 279.936ZM11.8952 304.386C12.5699 308.623 13.3569 312.555 14.2504 316.198L12.308 316.674C11.4 312.973 10.6025 308.986 9.92007 304.7L11.8952 304.386ZM17.8023 327.781C19.391 331.962 21.1727 335.598 23.1292 338.732L21.4328 339.791C19.3975 336.531 17.5605 332.775 15.9327 328.491L17.8023 327.781ZM30.8628 347.884C34.012 350.555 37.4492 352.424 41.1456 353.584L40.5468 355.492C36.5945 354.252 32.9212 352.252 29.5691 349.409L30.8628 347.884ZM52.8996 355.029C56.6893 354.884 60.6803 354.229 64.8506 353.118L65.3655 355.051C61.0798 356.193 56.9402 356.876 52.9761 357.028L52.8996 355.029ZM76.3476 349.126C79.9226 347.625 83.592 345.867 87.3432 343.881L88.2786 345.649C84.4833 347.658 80.7598 349.443 77.1218 350.97L76.3476 349.126ZM97.9697 337.806C101.362 335.733 104.805 333.512 108.29 331.164L109.408 332.823C105.901 335.185 102.433 337.423 99.0124 339.513L97.9697 337.806ZM118.366 324.12C121.625 321.765 124.912 319.321 128.22 316.805L129.431 318.396C126.111 320.921 122.811 323.375 119.537 325.741L118.366 324.12ZM137.909 309.285C141.094 306.769 144.292 304.202 147.497 301.598L148.758 303.151C145.547 305.759 142.342 308.332 139.149 310.855L137.909 309.285ZM157.008 293.792C160.161 291.181 163.315 288.549 166.464 285.91L167.749 287.443C164.597 290.084 161.44 292.718 158.284 295.332L157.008 293.792ZM175.88 277.997C179.03 275.344 182.17 272.698 185.294 270.073L186.581 271.604C183.458 274.229 180.319 276.874 177.168 279.527L175.88 277.997ZM194.748 262.162C197.942 259.503 201.114 256.88 204.257 254.311L205.523 255.859C202.386 258.424 199.219 261.042 196.027 263.699L194.748 262.162ZM213.853 246.567C217.137 243.957 220.381 241.425 223.577 238.989L224.79 240.579C221.606 243.006 218.372 245.53 215.097 248.133L213.853 246.567ZM233.492 231.648C236.962 229.163 240.363 226.824 243.683 224.658L244.776 226.333C241.483 228.481 238.107 230.803 234.657 233.274L233.492 231.648ZM254.267 218.216C258.11 216.064 261.821 214.214 265.379 212.718L266.154 214.562C262.679 216.022 259.036 217.837 255.244 219.961L254.267 218.216ZM277.254 208.999C279.413 208.597 281.497 208.386 283.5 208.386V210.386C281.637 210.386 279.676 210.582 277.621 210.965L277.254 208.999ZM283.5 208.386C285.534 208.386 287.52 208.476 289.458 208.654L289.276 210.646C287.399 210.474 285.475 210.386 283.5 210.386V208.386ZM300.951 210.859C304.766 212.002 308.367 213.522 311.772 215.378L310.815 217.134C307.528 215.342 304.055 213.877 300.377 212.774L300.951 210.859ZM321.47 221.963C324.439 224.407 327.233 227.134 329.871 230.104L328.375 231.432C325.8 228.532 323.08 225.879 320.199 223.507L321.47 221.963ZM337.065 239.314C339.235 242.45 341.288 245.762 343.238 249.221L341.495 250.203C339.572 246.792 337.552 243.532 335.421 240.453L337.065 239.314ZM348.582 259.564C350.219 263.009 351.779 266.556 353.273 270.183L351.424 270.944C349.941 267.346 348.395 263.832 346.775 260.423L348.582 259.564ZM357.467 281C358.786 284.605 360.055 288.262 361.282 291.951L359.384 292.582C358.162 288.909 356.9 285.271 355.589 281.688L357.467 281ZM364.817 302.987C365.959 306.678 367.07 310.381 368.159 314.076L366.241 314.642C365.153 310.953 364.045 307.258 362.906 303.578L364.817 302.987ZM371.391 325.192C372.469 328.935 373.533 332.646 374.594 336.31L372.673 336.867C371.611 333.201 370.546 329.485 369.469 325.746L371.391 325.192ZM377.858 347.406C378.991 351.175 380.131 354.863 381.289 358.444L379.386 359.06C378.222 355.462 377.079 351.76 375.943 347.982L377.858 347.406ZM385.021 369.366C386.383 373.112 387.783 376.687 389.237 380.056L387.401 380.849C385.928 377.436 384.514 373.824 383.141 370.049L385.021 369.366ZM394.235 390.342C396.221 393.926 398.313 397.12 400.54 399.862L398.988 401.123C396.67 398.269 394.514 394.972 392.485 391.311L394.235 390.342ZM408.77 407.408C411.932 409.402 415.353 410.61 419.103 410.92L418.938 412.913C414.846 412.575 411.119 411.253 407.703 409.099L408.77 407.408ZM430.161 409.465C433.321 408.452 436.695 406.917 440.308 404.804L441.317 406.531C437.603 408.703 434.095 410.304 430.772 411.37L430.161 409.465ZM449.717 398.385C451.227 397.219 452.772 395.966 454.353 394.624L455.647 396.148C454.044 397.51 452.475 398.782 450.939 399.968L449.717 398.385ZM454.353 394.624C455.891 393.316 457.41 392.01 458.909 390.703L460.223 392.211C458.718 393.523 457.193 394.835 455.647 396.148L454.353 394.624ZM467.664 382.872C470.594 380.181 473.441 377.493 476.205 374.81L477.598 376.245C474.82 378.942 471.96 381.642 469.017 384.345L467.664 382.872ZM484.495 366.525C487.278 363.66 489.969 360.8 492.57 357.948L494.048 359.296C491.433 362.164 488.727 365.039 485.93 367.919L484.495 366.525ZM500.272 349.218C502.881 346.159 505.386 343.11 507.792 340.073L509.36 341.315C506.939 344.371 504.418 347.439 501.794 350.516L500.272 349.218ZM514.85 330.807C517.213 327.578 519.463 324.363 521.604 321.166L523.266 322.279C521.109 325.499 518.843 328.736 516.464 331.988L514.85 330.807ZM527.929 311.255C529.985 307.866 531.919 304.499 533.735 301.157L535.492 302.112C533.661 305.483 531.711 308.877 529.639 312.293L527.929 311.255ZM539.072 290.702C540.8 287.086 542.389 283.502 543.844 279.954L545.695 280.714C544.225 284.297 542.62 287.915 540.877 291.564L539.072 290.702ZM547.96 269C549.245 265.231 550.378 261.508 551.365 257.836L553.297 258.356C552.297 262.071 551.151 265.835 549.853 269.645L547.96 269ZM553.997 246.476C554.757 242.556 555.349 238.702 555.781 234.92L557.768 235.147C557.33 238.981 556.73 242.887 555.96 246.857L553.997 246.476ZM556.625 223.249C556.742 219.259 556.676 215.364 556.439 211.57L558.435 211.445C558.676 215.301 558.743 219.258 558.624 223.307L556.625 223.249ZM555.142 199.98C554.499 196.05 553.664 192.252 552.65 188.595L554.577 188.061C555.611 191.789 556.462 195.658 557.115 199.658L555.142 199.98ZM548.881 177.545C547.374 173.864 545.67 170.366 543.789 167.063L545.527 166.074C547.451 169.453 549.193 173.028 550.732 176.787L548.881 177.545ZM537.354 157.384C534.942 154.264 532.348 151.388 529.596 148.773L530.973 147.323C533.802 150.011 536.464 152.962 538.936 156.161L537.354 157.384ZM520.554 141.496C517.314 139.312 513.925 137.439 510.417 135.896L511.222 134.065C514.842 135.657 518.335 137.589 521.672 139.838L520.554 141.496ZM499.44 132.247C495.705 131.386 491.876 130.876 487.984 130.737L488.055 128.739C492.075 128.882 496.03 129.408 499.889 130.298L499.44 132.247ZM476.428 131.409C472.694 131.975 468.928 132.882 465.154 134.149L464.518 132.252C468.4 130.95 472.278 130.015 476.128 129.432L476.428 131.409ZM454.51 138.684C451.192 140.406 447.884 142.419 444.602 144.735L443.449 143.101C446.802 140.734 450.187 138.674 453.589 136.909L454.51 138.684ZM435.515 152.006C434.07 153.305 432.633 154.667 431.207 156.093L429.793 154.679C431.244 153.228 432.706 151.841 434.178 150.519L435.515 152.006ZM431.207 156.093C429.928 157.372 428.669 158.833 427.437 160.464L425.841 159.259C427.121 157.564 428.44 156.031 429.793 154.679L431.207 156.093ZM421.352 170.354C419.683 173.621 418.11 177.213 416.656 181.084L414.784 180.381C416.261 176.448 417.864 172.786 419.57 169.444L421.352 170.354ZM413.01 192.27C411.979 195.938 411.048 199.772 410.232 203.744L408.273 203.341C409.098 199.325 410.04 195.444 411.085 191.729L413.01 192.27ZM408.237 215.324C407.701 219.143 407.27 223.053 406.954 227.032L404.96 226.873C405.28 222.855 405.715 218.905 406.256 215.047L408.237 215.324ZM406.364 238.804C406.284 242.697 406.315 246.632 406.468 250.592L404.469 250.669C404.315 246.669 404.283 242.694 404.365 238.763L406.364 238.804ZM407.278 262.349C407.667 266.242 408.179 270.14 408.822 274.026L406.849 274.353C406.199 270.423 405.681 266.482 405.288 262.548L407.278 262.349ZM411.135 285.568C412.038 289.383 413.078 293.169 414.261 296.909L412.354 297.513C411.155 293.723 410.103 289.89 409.189 286.029L411.135 285.568ZM418.247 307.971C419.724 311.6 421.352 315.166 423.139 318.654L421.359 319.566C419.545 316.025 417.893 312.405 416.395 308.725L418.247 307.971ZM428.97 328.843C431.065 332.133 433.324 335.328 435.755 338.413L434.184 339.651C431.711 336.512 429.413 333.262 427.283 329.918L428.97 328.843ZM443.48 347.232C446.181 350.004 449.051 352.658 452.097 355.177L450.822 356.718C447.72 354.152 444.798 351.45 442.048 348.627L443.48 347.232ZM461.516 362.149C464.719 364.265 468.085 366.249 471.621 368.088L470.698 369.862C467.101 367.991 463.675 365.972 460.414 363.818L461.516 362.149ZM482.277 372.973C485.82 374.393 489.511 375.682 493.354 376.83L492.782 378.746C488.882 377.582 485.133 376.273 481.533 374.829L482.277 372.973ZM504.745 379.713C508.49 380.499 512.364 381.163 516.369 381.695L516.106 383.677C512.052 383.139 508.129 382.467 504.333 381.67L504.745 379.713ZM528.139 382.85C531.921 383.096 535.809 383.233 539.807 383.256L539.795 385.256C535.76 385.232 531.832 385.094 528.01 384.846L528.139 382.85ZM551.562 383.004C555.427 382.821 559.385 382.537 563.44 382.149L563.63 384.14C559.545 384.531 555.555 384.817 551.657 385.002L551.562 383.004ZM575.041 380.787C577.017 380.513 579.014 380.216 581.032 379.895L581.346 381.87C579.315 382.193 577.305 382.492 575.315 382.768L575.041 380.787ZM581.032 379.895C583.104 379.565 585.098 379.184 587.017 378.753L587.456 380.704C585.494 381.145 583.458 381.534 581.346 381.87L581.032 379.895ZM598.028 375.428C601.819 373.944 605.222 372.202 608.268 370.222L609.358 371.899C606.19 373.958 602.665 375.761 598.757 377.291L598.028 375.428ZM617.06 362.863C619.68 360.043 621.894 356.935 623.744 353.56L625.498 354.521C623.573 358.033 621.264 361.278 618.526 364.224L617.06 362.863ZM628.16 342.93C629.246 339.358 630.057 335.576 630.625 331.604L632.605 331.886C632.025 335.947 631.193 339.829 630.074 343.512L628.16 342.93ZM631.602 319.982C631.724 316.201 631.681 312.289 631.495 308.259L633.493 308.167C633.681 312.241 633.725 316.206 633.601 320.047L631.602 319.982ZM630.601 296.525C630.212 292.748 629.725 288.889 629.158 284.958L631.137 284.672C631.708 288.626 632.198 292.512 632.591 296.319L630.601 296.525ZM627.303 273.383C626.638 269.574 625.916 265.711 625.149 261.801L627.112 261.416C627.881 265.337 628.606 269.215 629.273 273.039L627.303 273.383ZM622.794 250.246C621.996 246.458 621.17 242.635 620.327 238.784L622.281 238.356C623.125 242.211 623.952 246.039 624.751 249.834L622.794 250.246ZM617.787 227.28C616.94 223.46 616.086 219.619 615.239 215.764L617.192 215.335C618.039 219.187 618.892 223.026 619.74 226.847L617.787 227.28ZM612.742 204.267C611.922 200.424 611.117 196.574 610.338 192.722L612.299 192.326C613.076 196.169 613.879 200.012 614.698 203.849L612.742 204.267ZM608.089 181.166C607.365 177.281 606.679 173.402 606.04 169.534L608.013 169.208C608.65 173.061 609.334 176.926 610.055 180.799L608.089 181.166ZM604.263 157.86C603.721 153.944 603.24 150.047 602.832 146.176L604.821 145.967C605.227 149.814 605.705 153.689 606.244 157.586L604.263 157.86ZM601.82 134.387C601.561 130.405 601.394 126.459 601.333 122.556L603.332 122.524C603.393 126.392 603.559 130.305 603.816 134.257L601.82 134.387ZM601.487 110.748C601.661 106.77 601.965 102.849 602.413 98.9912L604.4 99.2222C603.957 103.028 603.657 106.902 603.485 110.835L601.487 110.748ZM604.285 87.2456C605.09 83.3299 606.074 79.496 607.254 75.7548L609.161 76.3564C608.003 80.0279 607.036 83.7952 606.244 87.6485L604.285 87.2456ZM611.467 64.6731C613.093 61.0654 614.941 57.5659 617.031 54.1866L618.732 55.2383C616.69 58.541 614.882 61.9633 613.29 65.495L611.467 64.6731ZM623.98 44.4936C626.449 41.505 629.154 38.6379 632.11 35.9021L633.469 37.3699C630.578 40.0455 627.934 42.8479 625.522 45.7675L623.98 44.4936ZM641.263 28.4439C644.391 26.1976 647.737 24.0677 651.313 22.0609L652.292 23.805C648.779 25.7767 645.495 27.867 642.429 30.0685L641.263 28.4439ZM661.96 16.7581C665.404 15.2396 669.025 13.8167 672.83 12.4935L673.487 14.3826C669.731 15.6889 666.16 17.0923 662.767 18.5882L661.96 16.7581ZM684.377 8.94281C687.972 7.97116 691.71 7.0769 695.594 6.26285L696.004 8.22031C692.155 9.02692 688.455 9.91232 684.899 10.8735L684.377 8.94281ZM707.463 4.09967C711.147 3.52292 714.949 3.01065 718.872 2.56473L719.098 4.55194C715.202 4.99481 711.427 5.50339 707.772 6.07559L707.463 4.09967ZM731.01 1.42807C734.702 1.1525 738.491 0.930481 742.381 0.763336L742.467 2.76151C738.597 2.92776 734.829 3.14856 731.159 3.42252L731.01 1.42807ZM754.308 0.428589C756.347 0.400513 758.41 0.386383 760.5 0.386383V2.38638C758.419 2.38638 756.365 2.40045 754.336 2.42841L754.308 0.428589Z" fill="#FD5956"/>
    </g>
</svg>
