<?xml version="1.0" ?><!DOCTYPE svg  PUBLIC '-//W3C//DTD SVG 1.1//EN'  'http://www.w3.org/Graphics/SVG/1.1/DTD/svg11.dtd'><svg xmlns="http://www.w3.org/2000/svg" xmlns:xlink="http://www.w3.org/1999/xlink" xmlns:serif="http://www.serif.com/" width="100%" height="100%" viewBox="0 0 512 512" version="1.1" xml:space="preserve" style="fill-rule:evenodd;clip-rule:evenodd;stroke-linejoin:round;stroke-miterlimit:2;"><g transform="matrix(1,0,0,1,-1686,-1686)"><g id="Icons"><path d="M2102.42,1924.06C2099.46,1922.36 2096.43,1920.77 2093.42,1919.08C2085.05,1914.4 2076.48,1909.07 2066.92,1907.29C2048.09,1903.81 2025.89,1908.02 2007.92,1913.52C1989.58,1919.13 1971.63,1922.66 1952.43,1923.85C1948.58,1924.08 1943.39,1924.76 1938.61,1924.41C1936.04,1924.23 1933.58,1923.78 1931.73,1922.54C1931.12,1922.14 1930.74,1921.44 1930.38,1920.66C1929.79,1919.41 1929.37,1917.93 1929.02,1916.41C1928.13,1912.64 1927.58,1908.63 1926.63,1906.06C1922.24,1894.21 1914.78,1882.41 1907.69,1871.89C1918.78,1843.27 1919.81,1815.22 1910.74,1787.75C1910.39,1786.72 1909.65,1785.87 1908.67,1785.4C1907.7,1784.93 1906.57,1784.88 1905.55,1785.25C1883.18,1793.5 1864.05,1806.16 1847.74,1822.66C1830.67,1813.84 1808.45,1815.16 1789.94,1818.16C1783.9,1801.17 1773.12,1789.1 1758.98,1780.92C1758.02,1780.36 1756.87,1780.23 1755.82,1780.55C1754.76,1780.87 1753.88,1781.62 1753.39,1782.61C1742.44,1804.75 1737.55,1827.95 1738.64,1852.22C1721.01,1865.65 1709.65,1885.77 1704.12,1912.01C1704,1912.6 1704.01,1913.22 1704.16,1913.81C1708.25,1930.06 1716.34,1946.8 1729.56,1957.67C1735.1,1962.24 1741.74,1965.32 1748.27,1968.21C1757.74,1972.39 1767.33,1975.01 1777.44,1977.03C1778.44,1977.22 1783.06,1978.54 1784.43,1978.93C1784.86,1981.32 1784.35,1984.42 1784.5,1986.71C1784.96,1993.64 1785.68,2000.64 1786.9,2007.47C1789.77,2023.45 1796.01,2035.2 1804.2,2048.25C1798.22,2048.96 1792.28,2049.98 1786.6,2051.61C1777.74,2054.15 1773.8,2062.1 1772.21,2070.46C1769.26,2085.94 1776.35,2103.25 1792.27,2108.08C1802.48,2111.17 1815.22,2111.59 1820.25,2099.5C1821.85,2095.66 1822.02,2091.24 1822.17,2087.07C1827.79,2086.58 1833.36,2087.97 1838.94,2089.44C1845.59,2091.2 1852.27,2093.11 1859.03,2093.23C1864.8,2108.06 1867.48,2124.43 1868.31,2140.25C1868.54,2144.66 1869.03,2149.4 1868.85,2153.91C1866.97,2154.46 1865.09,2155.12 1863.36,2156.02C1856.81,2159.39 1851.63,2164.93 1849.05,2171.88C1848.7,2172.84 1847.48,2175.72 1847.26,2177.4C1847.09,2178.74 1847.36,2179.83 1847.72,2180.55C1848.01,2181.12 1848.74,2182.31 1850.57,2182.72C1851.47,2182.92 1855.41,2182.85 1855.89,2182.87C1860.74,2183.01 1865.58,2183.06 1870.43,2183.09C1877.95,2183.14 1885.47,2183.14 1893,2183.15C1894.67,2183.15 1896.35,2183.15 1898.03,2183.15C1898.37,2183.15 1900.43,2183.1 1900.89,2182.97C1902.73,2182.43 1903.36,2181.14 1903.61,2180.37C1903.95,2179.35 1904.13,2178.3 1904.26,2177.24C1904.37,2176.38 1904.39,2175.5 1904.73,2174.67C1906.92,2169.22 1910.24,2164.32 1912.38,2158.86C1919.37,2140.98 1913.96,2120.9 1911.97,2102.65C1911.46,2097.92 1910.61,2092.79 1910.76,2087.9C1910.86,2084.41 1911.48,2081.03 1913.4,2078.13C1927.58,2079.56 1941.72,2078.96 1956.24,2076.56C1963.83,2075.3 1971.39,2073.3 1978.83,2070.78C1981.35,2079.67 1987.33,2088.33 1993.46,2094.68C1996.04,2097.35 1998.78,2099.71 2001.15,2102.24C2004.06,2105.36 2006.38,2108.74 2006.42,2113.82C2006.54,2126.98 2001.93,2139.27 1996.5,2151.03C1995.91,2151.03 1995.41,2151.04 1995.28,2151.05C1991.74,2151.47 1988.27,2152.4 1984.98,2153.76C1974.92,2157.88 1969.35,2166.32 1967.6,2176.83C1967.3,2178.66 1968.03,2179.8 1968.94,2180.59C1969.49,2181.07 1970.23,2181.48 1971.23,2181.59C1971.5,2181.62 1972.17,2181.54 1972.62,2181.49L1979.08,2181.48C1984.01,2181.48 1988.88,2181.61 1993.8,2181.83C2003.2,2182.25 2012.56,2182.64 2021.97,2182.67C2024.21,2182.68 2026.9,2183.05 2029.41,2182.89C2031.74,2182.74 2033.92,2182.17 2035.76,2180.97C2039.03,2178.81 2041.16,2175.2 2042.85,2171.79C2045.15,2167.14 2047,2162.32 2049.05,2157.57C2051.4,2152.15 2053.35,2146.59 2055.51,2141.1C2057.01,2137.29 2058.81,2133.67 2059.92,2129.72C2063.03,2118.75 2065.19,2107.49 2065,2096.2C2069.33,2099.26 2073.77,2102.16 2078.31,2104.85C2091.7,2112.8 2107.12,2121.5 2113.87,2136.32C2115.71,2140.35 2116.86,2144.77 2117.31,2149.19C2104.91,2157.39 2098.91,2168.45 2097.63,2181.61C2097.52,2182.74 2097.89,2183.85 2098.65,2184.69C2099.41,2185.52 2100.49,2186 2101.61,2186L2164.17,2186C2166.33,2186 2168.1,2184.28 2168.16,2182.12C2168.16,2182.12 2168.74,2163.02 2168.15,2156.65C2167.02,2144.44 2168.16,2132.31 2165.53,2120.21C2162.74,2107.4 2155.94,2096.25 2148.69,2085.53C2148.61,2085.42 2148.52,2085.31 2148.43,2085.2C2147.11,2081.28 2148.39,2077.05 2148.78,2073.02C2149.69,2063.49 2150.87,2053.96 2150.9,2044.37C2150.97,2014.66 2148.46,1984.19 2134.81,1958.7C2161.55,1957.05 2180.86,1941.61 2179.93,1914.94C2178.92,1885.5 2162.99,1854.66 2142.57,1833.95C2137.47,1828.79 2131,1823.97 2125.35,1818.56C2120.3,1813.72 2115.88,1808.4 2114.27,1801.62C2113.47,1798.26 2115.04,1796.01 2117.11,1794.06C2120.24,1791.09 2124.38,1788.64 2127.22,1785.65C2138.77,1773.52 2146.12,1763.51 2142.29,1745.83C2139.27,1731.91 2130.52,1717.06 2118.46,1707.72C2110.13,1701.27 2100.26,1697.44 2089.62,1698.07C2082.43,1698.49 2074.97,1699.93 2068.17,1702.31C2063.5,1703.94 2059.24,1706.12 2055.21,1708.96C2043.96,1716.91 2038.67,1728.33 2037.18,1740.93C2035.05,1758.83 2040.75,1779.18 2047.08,1794.35C2052.71,1807.85 2059.91,1819.26 2069.34,1830.38C2078.9,1841.66 2090.72,1847.28 2102.46,1855.71C2113.67,1863.76 2124.19,1873.7 2130.92,1885.92C2135.49,1894.22 2136.99,1902.84 2133.68,1909.62C2131.53,1913.99 2127.36,1917.44 2120.99,1919.56C2114.73,1921.63 2108.83,1922.9 2102.42,1924.06ZM1782.4,1820.83C1777.58,1807.3 1769.38,1797.29 1758.66,1790.14C1749.38,1810.46 1745.42,1831.72 1746.74,1853.92C1746.82,1855.29 1746.19,1856.6 1745.08,1857.4C1728.16,1869.58 1717.46,1888.29 1712.14,1912.75C1715.89,1927.12 1722.97,1941.89 1734.64,1951.49C1739.63,1955.6 1745.63,1958.3 1751.5,1960.89C1760.43,1964.84 1769.47,1967.28 1779,1969.18C1780.35,1969.45 1784.75,1970.24 1787.53,1971.47C1788.59,1971.93 1789.46,1972.51 1790.14,1973.13C1809.98,1977.02 1828.03,1977.01 1844.62,1973.78C1863.5,1970.1 1880.49,1962.29 1895.98,1951.06C1896.7,1950.51 1897.74,1950.65 1898.29,1951.38C1898.84,1952.11 1898.7,1953.14 1897.98,1953.69C1882.48,1966.05 1865.27,1975 1845.88,1979.61C1829.65,1983.46 1811.92,1984.22 1792.44,1981.51C1792.44,1983.16 1792.39,1984.79 1792.49,1986.18C1792.92,1992.81 1793.61,1999.52 1794.78,2006.06C1797.71,2022.39 1804.52,2033.96 1813.25,2047.58C1814.61,2047.59 1815.99,2047.66 1817.4,2047.83C1820.64,2048.23 1823.84,2048.96 1827.25,2049.91C1828.15,2050.01 1828.81,2050.83 1828.71,2051.74C1828.61,2052.64 1827.79,2053.3 1826.88,2053.2C1824.14,2053.35 1821.59,2053.68 1819.04,2054.03C1816.77,2054.35 1814.63,2054.75 1812.56,2055.29C1812.27,2055.41 1811.96,2055.49 1811.65,2055.54L1811.6,2055.54L1811.6,2055.54C1811.52,2055.55 1811.45,2055.56 1811.37,2055.57C1803.74,2056.22 1796.04,2057.23 1788.81,2059.3C1783.06,2060.95 1781.1,2066.53 1780.07,2071.95C1777.86,2083.56 1782.65,2096.8 1794.59,2100.42C1797.55,2101.32 1800.82,2102.03 1803.92,2101.98C1807.64,2101.92 1811.12,2100.62 1812.86,2096.43C1814.54,2092.39 1814.07,2087.55 1814.32,2083.37C1814.43,2081.58 1815.72,2080.08 1817.47,2079.7C1825.37,2078 1833.17,2079.65 1840.98,2081.71C1847.74,2083.49 1854.49,2085.61 1861.38,2085.18C1861.42,2085.18 1861.47,2085.18 1861.52,2085.17C1869.97,2084.61 1879.2,2081.75 1886.18,2076.93C1888.59,2075.27 1890.53,2073.08 1892.61,2071.03C1892.78,2070.85 1894.22,2069.31 1895,2068.62C1900.58,2062.32 1905.47,2055.32 1909.9,2047.75C1914.26,2040.29 1918.19,2032.34 1921.66,2023.86C1921.96,2023 1922.9,2022.55 1923.76,2022.85C1924.62,2023.16 1925.08,2024.1 1924.77,2024.96C1922.09,2033.97 1918.97,2042.52 1915.17,2050.54C1912.09,2057.04 1908.56,2063.15 1904.62,2068.87C1921.35,2071.71 1937.86,2071.49 1954.94,2068.66C1963.46,2067.26 1971.94,2064.84 1980.24,2061.82C1980.35,2061.77 1980.47,2061.73 1980.59,2061.69C1989.38,2058.46 1997.95,2054.56 2006.1,2050.45C2010.43,2048.28 2014.97,2045.83 2019.68,2044.58C2015.84,2034.75 2014.91,2024.85 2016.81,2015.94C2019.22,2004.69 2025.94,1995.03 2036.61,1989.22C2037.39,1988.75 2038.41,1989 2038.88,1989.78C2039.35,1990.56 2039.09,1991.58 2038.31,1992.05C2029.33,1997.95 2024.08,2006.9 2022.68,2016.98C2021.44,2025.92 2023.33,2035.74 2028.56,2045.13C2029.7,2046.22 2030.78,2047.76 2031.76,2049.49C2033,2051.7 2034.1,2054.28 2035.24,2055.9C2040.57,2063.41 2046.34,2070.95 2053.36,2076.97C2062.4,2084.71 2072.16,2091.9 2082.39,2097.97C2097.13,2106.72 2113.72,2116.7 2121.15,2133.01C2123.24,2137.58 2124.59,2142.56 2125.18,2147.57C2130.3,2148.14 2135.16,2149.47 2139.69,2151.84C2144.82,2154.53 2149.51,2158.39 2153.74,2163.64C2154.36,2164.31 2154.32,2165.35 2153.66,2165.97C2152.99,2166.6 2151.95,2166.56 2151.32,2165.9C2146.87,2161.81 2142.18,2159.07 2137.29,2157.3C2132.62,2155.61 2127.78,2154.97 2122.72,2155.22C2113.38,2161.09 2108.19,2168.81 2106.26,2178C2106.26,2178 2160.27,2178 2160.27,2178C2160.41,2172.27 2160.59,2161.74 2160.18,2157.39C2159.08,2145.5 2160.28,2133.69 2157.71,2121.91C2155.15,2110.11 2148.75,2099.9 2142.06,2090.02L2141.98,2089.89C2141.64,2089.53 2141.36,2089.1 2141.16,2088.61C2139.1,2083.38 2140.3,2077.67 2140.82,2072.26C2141.7,2062.98 2142.88,2053.69 2142.9,2044.35C2142.97,2013.91 2140.57,1982.49 2124.76,1957.24C2124.63,1957.06 2124.51,1956.87 2124.4,1956.66C2120.03,1949.79 2114.64,1943.37 2108.03,1937.56C2105.51,1935.36 2102.79,1933.53 2099.97,1931.85C2099.77,1931.75 2099.58,1931.64 2099.4,1931.51C2096.16,1929.62 2092.82,1927.92 2089.51,1926.06C2081.89,1921.8 2074.17,1916.77 2065.46,1915.16C2047.84,1911.89 2027.08,1916.02 2010.26,1921.17C1991.31,1926.97 1972.76,1930.61 1952.92,1931.83C1948.78,1932.09 1943.18,1932.76 1938.03,1932.39C1933.99,1932.1 1930.2,1931.14 1927.29,1929.19C1924.74,1927.49 1922.95,1924.34 1921.84,1920.58C1920.64,1916.54 1920.19,1911.72 1919.13,1908.84C1914.71,1896.91 1906.96,1885.07 1899.88,1874.62C1899.87,1874.6 1899.85,1874.57 1899.84,1874.55C1898.76,1873.09 1897.67,1871.71 1896.6,1870.36C1894.71,1867.96 1892.91,1865.73 1891.04,1863.66C1887.51,1859.77 1884.05,1856.44 1880.44,1853.53C1879.88,1853.17 1879.72,1852.42 1880.08,1851.86C1880.44,1851.31 1881.19,1851.15 1881.75,1851.51C1886.07,1853.69 1890.36,1856.27 1894.78,1859.53C1897.08,1861.23 1899.36,1863.08 1901.65,1865.18C1910.19,1841.11 1911.14,1817.47 1904.39,1794.27C1883.89,1802.48 1866.34,1814.7 1851.36,1830.42C1850.06,1831.78 1848,1832.05 1846.39,1831.08C1829.68,1820.95 1806.55,1823.35 1788.22,1826.56C1786.93,1827.04 1785.69,1827.57 1784.49,1828.14C1782.28,1829.17 1780.21,1830.25 1778.28,1831.61C1774.95,1833.95 1772.04,1836.69 1769.57,1840.15C1769.26,1840.73 1768.52,1840.95 1767.94,1840.63C1767.36,1840.32 1767.14,1839.58 1767.46,1839C1769.18,1834.61 1771.56,1830.84 1774.57,1827.45C1776.41,1825.38 1778.49,1823.55 1780.82,1821.88C1781.33,1821.52 1781.86,1821.17 1782.4,1820.83ZM1904.93,2077.03C1902.94,2076.71 1900.95,2076.35 1898.96,2075.95L1898.23,2076.71C1895.83,2079.09 1893.53,2081.59 1890.73,2083.52C1884.04,2088.14 1875.59,2091.24 1867.33,2092.55C1872.83,2107.58 1875.46,2123.97 1876.29,2139.83C1876.54,2144.42 1877,2149.34 1876.84,2154.06C1879.06,2154.72 1881.21,2155.6 1883.27,2156.83C1886.17,2158.55 1888.84,2160.71 1891.39,2163.5C1892.09,2164.09 1892.18,2165.13 1891.59,2165.83C1891.01,2166.53 1889.97,2166.62 1889.27,2166.04C1886.47,2164.27 1883.68,2163.14 1880.86,2162.28C1878.31,2161.5 1875.78,2161.13 1873.19,2161.09C1872.6,2161.23 1871.83,2161.4 1871.65,2161.44C1870.07,2161.87 1868.48,2162.38 1867.02,2163.13C1862.24,2165.59 1858.43,2169.59 1856.55,2174.66L1856.47,2174.88C1861.14,2175.01 1865.81,2175.06 1870.48,2175.09C1877.99,2175.14 1885.5,2175.14 1893,2175.15L1896.46,2175.15L1896.48,2174.99C1896.64,2173.87 1896.87,2172.76 1897.31,2171.67C1899.5,2166.25 1902.8,2161.38 1904.93,2155.94C1911.45,2139.27 1905.88,2120.54 1904.02,2103.52C1903.47,2098.43 1902.6,2092.91 1902.76,2087.65C1902.87,2083.93 1903.49,2080.33 1904.93,2077.03ZM2056.59,2089.95C2053.72,2087.71 2050.91,2085.4 2048.16,2083.05C2040.64,2076.61 2034.41,2068.56 2028.72,2060.53C2027.62,2058.98 2026.53,2056.7 2025.38,2054.51C2024.87,2053.53 2024.38,2052.55 2023.82,2051.79L2022.03,2052.24C2017.74,2053.31 2013.63,2055.62 2009.7,2057.6C2002.22,2061.37 1994.39,2064.96 1986.36,2068.06C1988.37,2075.89 1993.81,2083.52 1999.22,2089.13C2002.54,2092.57 2006.11,2095.53 2008.88,2098.94C2012.12,2102.94 2014.37,2107.51 2014.42,2113.75C2014.54,2127.28 2010.21,2140.02 2004.77,2152.18C2008.05,2153.09 2011.18,2154.37 2014.15,2156.11C2018.36,2158.57 2022.21,2161.75 2025.83,2165.62C2026.51,2166.23 2026.57,2167.28 2025.97,2167.96C2025.36,2168.64 2024.32,2168.7 2023.64,2168.09C2019.74,2165.22 2015.73,2163.08 2011.57,2161.48C2007.59,2159.96 2003.5,2159.11 1999.2,2159.03C1999.11,2159.03 1999.01,2159.03 1998.91,2159.03L1996.09,2159.01C1993.31,2159.36 1990.6,2160.1 1988.01,2161.16C1982.22,2163.53 1978.57,2167.95 1976.66,2173.48L1979.08,2173.48C1984.12,2173.48 1989.12,2173.62 1994.15,2173.84C2003.45,2174.25 2012.7,2174.64 2022,2174.67C2023.79,2174.68 2025.89,2174.94 2027.92,2174.94C2029.16,2174.93 2030.4,2174.91 2031.36,2174.28C2033.45,2172.9 2034.6,2170.42 2035.68,2168.24C2037.92,2163.72 2039.71,2159.03 2041.71,2154.4C2044.02,2149.06 2045.94,2143.58 2048.07,2138.17C2049.47,2134.61 2051.18,2131.24 2052.23,2127.54C2055.7,2115.26 2058,2102.58 2056.59,2089.95ZM2130.14,1950.85C2154.25,1950.77 2172.74,1938.56 2171.94,1915.21C2170.99,1887.7 2155.96,1858.92 2136.87,1839.57C2131.82,1834.46 2125.41,1829.7 2119.82,1824.34C2113.64,1818.41 2108.46,1811.77 2106.49,1803.47C2104.89,1796.78 2107.5,1792.13 2111.61,1788.25C2114.65,1785.37 2118.68,1783.03 2121.43,1780.14C2130.95,1770.13 2137.64,1762.11 2134.47,1747.53C2131.82,1735.31 2124.16,1722.24 2113.56,1714.04C2106.77,1708.79 2098.77,1705.54 2090.09,1706.05C2083.63,1706.43 2076.92,1707.72 2070.81,1709.86C2066.85,1711.24 2063.24,1713.09 2059.82,1715.5C2048.16,1723.73 2044.5,1736.61 2044.73,1750.12C2044.97,1764.44 2049.56,1779.52 2054.47,1791.27C2059.77,1803.99 2066.57,1814.73 2075.45,1825.21C2084.56,1835.97 2095.93,1841.18 2107.12,1849.21C2119.28,1857.94 2130.63,1868.8 2137.93,1882.06C2143.9,1892.92 2145.2,1904.27 2140.86,1913.13C2137.9,1919.18 2132.33,1924.22 2123.51,1927.15C2119.55,1928.46 2115.74,1929.47 2111.86,1930.34C2112.35,1930.73 2112.83,1931.13 2113.3,1931.55C2120.02,1937.44 2125.56,1943.92 2130.14,1950.85Z"/></g></g></svg>