<svg width="1920" height="1565" viewBox="0 0 1920 1565" fill="none" xmlns="http://www.w3.org/2000/svg">
<g style="mix-blend-mode:luminosity" opacity="0.3">
<path opacity="0.92" d="M968.5 1388L1227.5 1163L1532.5 420.5L1286 1326.5L968.5 1388Z" fill="#EBEBEB"/>
<path opacity="0.43" d="M384.185 1083.23L692.272 346.044L860.793 637.93L384.185 1083.23Z" fill="#FD5956"/>
<path opacity="0.43" d="M1532.59 420.202L1065.19 881.456L902.658 599.937L1532.59 420.202Z" fill="#EEBB98"/>
<path opacity="0.63" d="M1532.59 420.202L1227.73 1162.98L1065.19 881.456L1532.59 420.202Z" fill="#FFE3D0"/>
<path opacity="0.43" d="M1532.59 420.202L692.272 346.044L848.131 616L1532.59 420.202Z" fill="#D8600F"/>
<path opacity="0.43" d="M384.185 1083.24L1065.19 881.456L902.657 599.937L384.185 1083.24Z" fill="#EAAA7F"/>
<path opacity="0.43" d="M384.184 1083.23L968.5 1388L1227.73 1162.98L1065.19 881.456L384.184 1083.23Z" fill="#EEBB98"/>
<path d="M384 1083.5L968.5 1388V1452L384 1083.5Z" fill="#C0C0C0"/>
<path d="M1286 1326.5L968.5 1452L968.5 1388L1286 1326.5Z" fill="#DADADA"/>
</g>
<path d="M-469 955.171C-175 620.973 -79.4389 1125.36 158 1054.14C378.5 988 626.147 491.985 853.961 620.973C1533.11 1005.51 1045 1194.64 853.961 1128.56C628.309 1050.51 482.825 545.464 1194.8 620.973C1391.32 641.815 1437.76 1101.09 1601 1194.64C1910.89 1372.23 1876.5 817.5 2389 1395.64" stroke="#FD5956" stroke-width="3" stroke-dasharray="12 12"/>
</svg>
