<svg width="67" height="66" viewBox="0 0 67 66" fill="none" xmlns="http://www.w3.org/2000/svg">
<path d="M24.0017 6.19092C19.5053 6.19092 15.8602 9.83598 15.8602 14.3324C15.8602 18.8288 19.5053 22.4738 24.0017 22.4738H42.9984C47.4949 22.4738 51.1398 18.8288 51.1398 14.3324C51.1398 9.83598 47.4949 6.19092 42.9984 6.19092H24.0017Z" fill="#FD5956"/>
<path d="M42.9984 25.1875C38.5019 25.1875 34.8569 28.8324 34.8569 33.3289C34.8569 37.8255 38.5019 41.4704 42.9984 41.4704C47.4949 41.4704 51.1398 37.8255 51.1398 33.3289C51.1398 28.8324 47.4949 25.1875 42.9984 25.1875Z" fill="#FD5956"/>
<path d="M15.8602 33.3289C15.8602 28.8324 19.5053 25.1875 24.0017 25.1875H32.1431V41.4704H24.0017C19.5053 41.4704 15.8602 37.8255 15.8602 33.3289Z" fill="#FD5956"/>
<path d="M24.0017 44.1843C19.5053 44.1843 15.8602 47.8293 15.8602 52.3258C15.8602 56.8223 19.5053 60.4672 24.0017 60.4672C28.4982 60.4672 32.1431 56.8223 32.1431 52.3258V44.1843H24.0017Z" fill="#FD5956"/>
</svg>
