<svg width="65" height="65" viewBox="0 0 65 65" fill="none" xmlns="http://www.w3.org/2000/svg">
<mask id="mask0_610_236" style="mask-type:luminance" maskUnits="userSpaceOnUse" x="0" y="0" width="65" height="65">
<path d="M0 0H64.8412V65H0V0Z" fill="white"/>
</mask>
<g mask="url(#mask0_610_236)">
<path d="M63.6196 29.6057L35.3084 1.22734C34.9206 0.838322 34.4601 0.529718 33.9533 0.319167C33.4464 0.108616 32.9031 0.000244141 32.3545 0.000244141C31.8059 0.000244141 31.2626 0.108616 30.7558 0.319167C30.2489 0.529718 29.7884 0.838322 29.4006 1.22734L23.5238 7.12132L30.9799 14.5956C31.8565 14.2972 32.7989 14.2506 33.7005 14.4611C34.6021 14.6716 35.427 15.1309 36.0818 15.7869C36.7403 16.4476 37.1999 17.2808 37.4082 18.1911C37.6165 19.1015 37.565 20.0522 37.2596 20.9345L44.4482 28.1386C45.3286 27.8321 46.2774 27.7804 47.1857 27.9896C48.0941 28.1988 48.9253 28.6604 49.584 29.3214C50.0454 29.7838 50.4114 30.3328 50.6611 30.9371C50.9108 31.5414 51.0394 32.189 51.0394 32.8431C51.0394 33.4972 50.9108 34.1448 50.6611 34.7491C50.4114 35.3534 50.0454 35.9024 49.584 36.3648C48.6511 37.299 47.3865 37.8237 46.068 37.8237C44.7495 37.8237 43.4849 37.299 42.552 36.3648C41.8591 35.6691 41.3869 34.7833 41.1951 33.8191C41.0032 32.8549 41.1002 31.8553 41.4738 30.9462L34.77 24.2281V41.9108C35.4776 42.2612 36.0917 42.7755 36.5615 43.4112C37.0313 44.0469 37.3433 44.7856 37.4716 45.5662C37.5998 46.3468 37.5408 47.1469 37.2992 47.9C37.0577 48.6532 36.6406 49.3378 36.0825 49.8972C35.6212 50.3598 35.0735 50.7267 34.4707 50.977C33.8679 51.2273 33.2218 51.3562 32.5694 51.3562C31.9169 51.3562 31.2708 51.2273 30.668 50.977C30.0653 50.7267 29.5176 50.3598 29.0562 49.8972C28.5947 49.4348 28.2286 48.8857 27.9788 48.2814C27.7291 47.677 27.6005 47.0293 27.6005 46.3751C27.6005 45.721 27.7291 45.0732 27.9788 44.4689C28.2286 43.8646 28.5947 43.3155 29.0562 42.853C29.5211 42.3861 30.0737 42.016 30.6821 41.7644V23.919C30.0762 23.6688 29.5256 23.3011 29.0619 22.837C28.5982 22.3729 28.2306 21.8215 27.9801 21.2146C27.7296 20.6076 27.6012 19.957 27.6023 19.3001C27.6034 18.6433 27.734 17.9931 27.9865 17.387L20.6349 10.016L1.22067 29.4727C0.438341 30.2585 -0.0010376 31.3234 -0.0010376 32.4335C-0.0010376 33.5437 0.438341 34.6085 1.22067 35.3943L29.5333 63.7762C30.3171 64.5603 31.3792 65.0006 32.4865 65.0006C33.5938 65.0006 34.6558 64.5603 35.4397 63.7762L63.6196 35.5273C64.4019 34.7415 64.8413 33.6767 64.8413 32.5665C64.8413 31.4563 64.4019 30.3915 63.6196 29.6057Z" fill="#FD5956"/>
</g>
</svg>
