<svg width="53" height="53" viewBox="0 0 53 53" fill="none" xmlns="http://www.w3.org/2000/svg">
<path d="M49.6382 0H3.36672C1.50837 0 0 1.50837 0 3.36672V49.6333C0 51.4916 1.50837 53 3.36672 53H49.6333C51.4916 53 53 51.4916 53 49.6382V3.36672C53 1.50837 51.4916 0 49.6382 0ZM29.0238 40.6126C29.0238 45.6553 26.0662 47.9524 21.7481 47.9524C17.8441 47.9524 15.0295 45.3349 13.881 42.9048L17.8491 40.5042C18.6131 41.8597 19.7764 42.9048 21.4524 42.9048C23.0544 42.9048 23.9762 42.2787 23.9762 39.8437V23.9762H29.0238V40.6126ZM39.9718 47.9524C35.5009 47.9524 32.9623 45.6997 31.5476 42.9048L35.3333 40.381C36.3636 42.0668 37.4874 43.6787 39.8634 43.6787C41.8597 43.6787 42.9048 42.6829 42.9048 41.3027C42.9048 39.6563 41.8203 39.0698 39.6268 38.1085L38.424 37.591C34.9488 36.1122 32.637 34.2587 32.637 30.335C32.637 26.7267 35.3925 23.9762 39.6908 23.9762C42.752 23.9762 44.9504 25.0409 46.5377 27.8309L42.7914 30.2414C41.9633 28.7576 41.076 28.176 39.6908 28.176C38.2811 28.176 37.3889 29.0731 37.3889 30.2414C37.3889 31.6856 38.2811 32.2673 40.3464 33.1644L41.5492 33.682C45.6455 35.4319 47.9524 37.2213 47.9524 41.2436C47.9524 45.5765 44.5462 47.9524 39.9718 47.9524Z" fill="#FD5956"/>
</svg>
