<svg width="66" height="66" viewBox="0 0 66 66" fill="none" xmlns="http://www.w3.org/2000/svg">
<path d="M62.2821 32.5658C62.2821 28.7664 58.2114 25.2385 51.4268 22.796L50.2056 22.389V21.8462C51.6982 14.3832 50.6127 8.8199 47.2204 6.78454C43.8281 4.74918 38.8076 6.64885 33.3799 11.398L32.5658 12.2122L32.2944 11.9408H32.023C26.4597 6.78454 21.0321 5.02056 17.6398 6.92023C14.2475 8.8199 13.2977 14.1118 14.6546 21.0321C14.7974 21.4723 14.8884 21.9277 14.926 22.389L13.4334 22.9317C6.78455 25.2385 2.84952 28.7664 2.84952 32.5658C2.84952 36.3651 7.19162 40.1645 13.9762 42.6069L14.926 42.8783C14.7584 43.3587 14.6668 43.8623 14.6546 44.3709C13.2977 51.1554 14.5189 56.3117 17.6398 58.2113C20.7607 60.111 26.4597 58.347 31.8873 53.5979L32.7015 52.9194L33.787 54.0049C37.5864 57.2615 41.3857 59.0255 44.3709 59.0255C45.4239 59.0495 46.4611 58.7666 47.3561 58.2113C50.7484 56.3117 51.9696 50.7484 50.477 43.6924V43.4211C50.4184 43.1978 50.3731 42.9712 50.3413 42.7426H50.7484C57.94 40.1645 62.2821 36.5008 62.2821 32.5658ZM58.347 32.5658C58.347 34.1941 55.3619 37.0436 49.5271 38.9433H49.2558C48.5444 36.7605 47.683 34.6296 46.6776 32.5658C47.6275 30.3947 48.4416 28.2237 49.1201 26.1883L50.2056 26.4597C55.6332 28.3594 58.347 30.9375 58.347 32.5658ZM36.3651 51.0197L35.2796 50.2056C36.8333 48.4841 38.2832 46.6717 39.6217 44.778L46.5419 43.6924C46.6776 43.9638 46.6776 44.2352 46.8133 44.3709C47.2968 46.8287 47.3884 49.3475 47.0847 51.8339C46.894 53.023 46.3227 54.1181 45.4564 54.9548C44.0995 55.7689 40.4359 54.6834 36.3651 51.0197ZM34.6012 45.0493L32.7015 47.4918L30.5304 45.0493H34.6012ZM16.0115 26.0526C16.6935 28.2898 17.5557 30.4679 18.5896 32.5658C17.5549 34.71 16.6928 36.9333 16.0115 39.2146L15.1974 38.9433C12.8212 38.1933 10.6105 36.9958 8.68422 35.4153C8.18544 35.1001 7.75855 34.6835 7.43127 34.1926C7.10399 33.7017 6.88364 33.1474 6.78455 32.5658C6.78455 30.9375 9.49837 28.3594 14.6546 26.5954L16.0115 26.0526ZM30.5304 20.0822L32.5658 17.7755L34.6012 20.0822H30.5304ZM45.4564 10.1768C46.949 10.991 47.7632 15.0617 46.5419 21.0321C46.5482 21.1056 46.5394 21.1796 46.516 21.2496C46.4927 21.3196 46.4554 21.3841 46.4063 21.4391L39.6217 20.3536C38.2832 18.4599 36.8333 16.6475 35.2796 14.926L36.0938 14.2475C40.4359 10.4482 43.9638 9.36266 45.4564 10.1768ZM22.7961 24.56L21.7105 26.324L20.7607 28.088C20.3536 27.1382 20.0822 26.1883 19.6752 25.1028L22.7961 24.56ZM19.6752 40.0288C20.0822 39.0789 20.3536 38.1291 20.7607 37.0436L21.7105 38.8076L22.7961 40.5715L19.6752 40.0288ZM42.3355 32.5658C41.645 34.0535 40.875 35.5029 40.0288 36.9079C39.2146 38.4005 38.2648 39.7574 37.4507 41.1143H27.6809C26.7311 39.6217 25.7813 38.2648 25.1028 36.9079C24.2499 35.5067 23.4797 34.0569 22.7961 32.5658C23.4545 31.0624 24.2256 29.6109 25.1028 28.2237C25.8824 26.8179 26.7432 25.4586 27.6809 24.153C30.9319 23.8817 34.1997 23.8817 37.4507 24.153C38.4005 25.5099 39.2146 26.8668 40.0288 28.2237C40.906 29.6109 41.6771 31.0624 42.3355 32.5658ZM43.4211 26.324L42.3355 24.56L45.4564 25.2385C45.1543 26.21 44.7917 27.1617 44.3709 28.088L43.4211 26.324ZM42.3355 40.5715L43.4211 38.8076L44.3709 36.9079L45.5921 40.0288L42.3355 40.5715ZM29.7163 14.7903H29.852L25.5099 20.2179L18.7253 21.3035C18.5896 20.8964 18.5896 20.625 18.454 20.2179C17.3684 14.6546 18.1826 10.8553 19.5395 10.1768C19.8997 9.94019 20.3341 9.84365 20.7607 9.90543C22.6604 9.90543 25.9169 11.2623 29.5806 14.5189L29.7163 14.7903ZM18.454 45.0493C18.4787 44.6304 18.5703 44.2181 18.7253 43.8281L25.6456 44.778C26.9501 46.6969 28.4019 48.5116 29.9877 50.2056L29.7163 50.477L29.4449 50.7484C27.595 52.462 25.4288 53.7986 23.0674 54.6834C22.5494 54.9547 21.9819 55.1186 21.399 55.1653C20.8161 55.2119 20.2297 55.1403 19.6752 54.9548C18.1826 54.1406 17.3684 50.477 18.454 45.0493Z" fill="#FD5956"/>
<path d="M32.5658 26.5953C31.3796 26.5683 30.2122 26.8954 29.2127 27.5349C28.2132 28.1743 27.4269 29.097 26.9541 30.1853C26.4813 31.2736 26.3436 32.4781 26.5584 33.645C26.7732 34.812 27.3308 35.8884 28.1602 36.7371C28.9895 37.5857 30.0528 38.1679 31.2145 38.4095C32.3762 38.6511 33.5836 38.541 34.6824 38.0934C35.7813 37.6458 36.7219 36.8809 37.3841 35.8963C38.0464 34.9118 38.4002 33.7522 38.4005 32.5657C38.4009 31.0055 37.7906 29.5071 36.7001 28.3912C35.6096 27.2754 34.1256 26.6308 32.5658 26.5953Z" fill="#FD5956"/>
</svg>
