<svg width="55" height="52" viewBox="0 0 55 52" fill="none" xmlns="http://www.w3.org/2000/svg">
<path d="M31.2149 49.8228C32.1912 49.1254 33.5857 48.0095 34.3527 47.312C47.722 52.6246 52.0838 42.2411 51.7355 38.2781C51.3499 33.8899 45.9027 21.3668 27.38 21.3665C26.509 23.4084 23.9622 24.4327 21.8556 23.2122C19.2705 21.7144 19.2705 17.9497 21.8556 16.4519C23.8638 15.2884 26.2719 16.1653 27.247 18.0187C38.4924 17.9615 51.0995 22.7389 54.6249 36.0322C57.1675 45.6194 46.5002 56.7956 31.2149 49.8228ZM38.1336 36.2636C39.994 36.0443 41.6068 34.4911 41.6068 32.3864C41.6068 29.3909 38.3407 27.5085 35.7418 29.0062C33.462 30.3202 33.1827 33.3783 34.9028 35.1205C28.7323 46.6279 14.951 51.1274 7.67864 46.7597C3.65141 44.3411 -0.501557 35.6827 9.18056 27.7134C8.90164 26.8067 8.48327 25.2723 8.27408 24.1563C-9.13335 37.2774 3.39723 58.1554 23.0244 50.0249C28.3308 47.8267 34.0843 43.9849 38.1336 36.2636ZM16.9066 40.7184C19.5091 42.2162 22.7798 40.3338 22.7798 37.3383C22.7798 34.8385 20.502 33.1157 18.2356 33.4838C3.83946 6.58685 34.149 -9.38581 38.0484 16.0658L41.5348 17.112C38.9998 -3.3613 23.6957 -1.48797 18.7929 2.65854C15.1185 5.76625 5.29589 16.7015 15.4443 35.433C14.4664 37.1942 14.9537 39.5945 16.9066 40.7184Z" fill="#FD5956"/>
</svg>
