<svg width="49" height="49" viewBox="0 0 49 49" fill="none" xmlns="http://www.w3.org/2000/svg">
<path d="M40.3935 0L40.0414 1.8232C39.4968 5.27842 39.694 6.26695 41.1869 7.54925L42.6282 8.73364L41.1352 15.3456C40.2432 19.2905 39.1494 22.5965 38.4545 23.6829C37.8583 24.6202 37.1635 26.0004 37.0133 26.7418C36.7645 27.6278 35.9194 28.5184 34.6283 29.3064C33.4875 29.9499 31.2481 31.6752 29.6613 33.0601C28.3937 34.1931 27.5205 34.8879 27.0464 35.1863L25.4971 36.4034C24.9994 37.1961 24.7178 37.8349 24.6098 38.3198C24.5018 38.8188 24.5628 39.1498 24.7225 39.3923C24.8774 39.6254 25.145 39.7886 25.5112 39.8912C25.9447 39.9921 26.3909 40.0283 26.8351 39.9985C27.8401 39.9303 28.8348 39.7552 29.8022 39.4762C30.1308 39.3876 30.389 39.3037 30.6143 39.2291C30.9618 38.8048 31.7646 38.0027 33.1871 36.6085C36.9616 32.9108 38.4029 30.8871 36.9147 31.4327C36.3654 31.6285 36.6142 31.1343 37.5579 30.1457C39.5484 28.22 40.6892 25.3103 43.0742 16.185C44.9615 8.98077 44.9615 8.87819 46.3511 8.87819C47.0037 8.87819 48.8487 8.9901 48.8487 8.9901V0H44.614H40.3935ZM23.6708 15.4109C22.3 15.4016 19.3517 17.4766 10.5256 24.6342C10.1453 25.5341 10.1125 26.1543 10.2862 26.5553C10.3988 26.8304 10.6054 27.0216 10.8918 27.1615C11.1735 27.3014 11.5397 27.3853 11.9434 27.4179C12.7462 27.4879 13.6945 27.362 14.4598 27.2128L14.9762 27.0962C15.153 26.8607 15.3851 26.6718 15.6522 26.546C16.1968 26.2475 18.4832 24.1772 20.7695 21.9577C24.7929 17.9102 25.7365 16.0824 24.0981 15.4902C23.9636 15.4371 23.8155 15.4102 23.6708 15.4109ZM33.9805 18.2227C32.7739 18.2553 30.6003 19.6449 26.8773 22.5965C25.0088 24.1026 23.8258 24.9139 23.192 25.0818L20.7319 27.0123C19.8071 28.6909 19.6709 29.7307 19.9151 30.3043C19.9762 30.4458 20.0649 30.5738 20.1761 30.6811C20.2873 30.7883 20.4187 30.8726 20.5629 30.9291C20.9216 31.0698 21.304 31.141 21.6897 31.1389C22.6111 31.1292 23.5271 30.9959 24.4126 30.7426C24.8741 30.6196 25.3299 30.4764 25.7788 30.3136L25.9149 30.2576L26.1637 30.1271C26.6332 29.5256 27.713 28.3925 29.0651 27.0869C33.3373 22.9928 35.5203 20.0832 35.0743 18.9967C34.8725 18.4698 34.5251 18.204 33.9805 18.2227ZM22.6004 23.2586C22.253 23.2959 21.4737 23.8928 20.07 25.1144C18.0419 26.8957 15.8306 27.9215 15.0654 27.4646C14.8876 27.5045 14.7091 27.5418 14.5302 27.5765C13.7509 27.7303 12.7791 27.8562 11.9105 27.7863C11.5013 27.7617 11.1002 27.6621 10.7275 27.4925C10.3759 27.3329 10.0953 27.0509 9.93875 26.6998C9.76505 26.2802 9.76504 25.7579 9.96222 25.0911L6.91064 27.5811L0.00469574 33.2559V42.4558L22.6333 24.7507C22.6289 24.5569 22.6542 24.3635 22.7084 24.1772C22.8821 23.5524 22.8727 23.2353 22.6004 23.2633V23.2586ZM32.3373 26.2382C31.9946 26.2382 31.4218 26.7185 30.5064 27.6837C29.2623 29.0033 27.3046 30.281 26.267 30.5421L26.1074 30.626C25.9371 30.6959 25.7649 30.7612 25.591 30.8219C25.3093 30.9151 24.9431 31.027 24.5206 31.1389C23.6755 31.3674 22.6239 31.5773 21.685 31.5539C21.2423 31.5534 20.8039 31.4679 20.3939 31.3021C20.0075 31.1439 19.6978 30.8431 19.5301 30.4628C19.2578 29.8147 19.3658 28.9054 19.962 27.6138L0 43.2299V48.8487H8.76976L27.3703 34.3377C27.8538 33.8061 28.5815 33.0787 29.5627 32.1694C32.1918 29.7494 32.788 28.9147 32.788 27.6791C32.788 26.7185 32.68 26.2335 32.3373 26.2335V26.2382ZM36.7644 35.3309L35.1729 36.907C34.2809 37.7463 32.6894 38.7815 31.6002 39.2244L31.3843 39.3177L31.3702 39.341L31.3232 39.3876C31.281 39.4203 31.2622 39.4249 31.2294 39.4389C30.7946 39.6024 30.3528 39.7471 29.9054 39.8726C28.9107 40.1602 27.8876 40.3399 26.8539 40.4088C26.3651 40.4399 25.8745 40.3975 25.3985 40.2829C24.9854 40.1926 24.6208 39.9534 24.375 39.6115C24.1497 39.2664 24.084 38.8048 24.2107 38.2359C24.3116 37.8309 24.4613 37.4395 24.6567 37.0702L9.64768 48.8487H29.6097L31.9946 46.1349C35.2715 42.3393 36.7644 39.6254 36.7644 37.3033V35.3309Z" fill="#FD5956"/>
</svg>
