<svg width="66" height="66" viewBox="0 0 66 66" fill="none" xmlns="http://www.w3.org/2000/svg">
<path d="M6.51318 32.5658V58.6184H58.6184V6.51318H6.51318V32.5658ZM48.5035 30.4903C49.8278 30.8203 50.8352 31.4086 51.7623 32.3682C52.2421 32.8806 52.9542 33.8142 53.0106 34.04C53.028 34.1051 50.7614 35.6248 49.3893 36.478C49.3394 36.5106 49.1396 36.2957 48.9182 35.9657C48.2452 34.9887 47.5439 34.5675 46.4692 34.4937C44.8887 34.3852 43.8727 35.2123 43.8813 36.5931C43.8669 36.9327 43.9434 37.2699 44.1028 37.5701C44.4502 38.2887 45.0971 38.7207 47.1206 39.5957C50.8526 41.2023 52.4483 42.2596 53.4405 43.7641C54.5477 45.4423 54.7974 48.1236 54.044 50.1166C53.219 52.2833 51.1674 53.7553 48.2799 54.2416C47.3876 54.4001 45.2708 54.3762 44.3112 54.2025C42.2183 53.8291 40.234 52.7957 39.0095 51.4388C38.5297 50.9112 37.594 49.5282 37.6526 49.4305C37.6765 49.3958 37.8914 49.2634 38.1302 49.1244C38.3647 48.992 39.2396 48.4861 40.0668 48.0063L41.5648 47.1379L41.8796 47.6025C42.3182 48.2712 43.2756 49.1896 43.8553 49.4957C45.5183 50.3728 47.8001 50.249 48.9247 49.2395C49.1508 49.049 49.3299 48.8088 49.4477 48.5376C49.5656 48.2664 49.6192 47.9716 49.6042 47.6763C49.6042 47.0728 49.5282 46.8079 49.2134 46.352C48.8096 45.7745 47.9825 45.2882 45.6334 44.2678C42.9456 43.1106 41.7884 42.392 40.729 41.25C40.0677 40.4964 39.5794 39.6072 39.2982 38.6448C39.1007 37.9088 39.0507 36.0634 39.2071 35.3209C39.7607 32.7221 41.7211 30.9136 44.55 30.3752C45.4684 30.2015 47.6025 30.2667 48.5035 30.4903ZM36.2718 32.6657L36.2892 34.7998H29.5046V54.0701H24.7066V34.7998H17.9286V32.7069C17.9286 31.5476 17.9525 30.5793 17.985 30.5576C18.0111 30.5229 22.1382 30.5055 27.1404 30.5142L36.2479 30.5402L36.2718 32.6657Z" fill="#FD5956"/>
</svg>
