<svg width="31" height="27" viewBox="0 0 31 27" fill="none" xmlns="http://www.w3.org/2000/svg">
<path d="M15.8454 8.99808C13.0733 8.99808 10.8111 11.0211 10.8111 13.5C10.8111 15.9789 13.0733 18.0019 15.8454 18.0019C18.6175 18.0019 20.8797 15.9789 20.8797 13.5C20.8797 11.0211 18.6175 8.99808 15.8454 8.99808ZM30.9445 13.5C30.9445 11.6357 30.9634 9.78837 30.8464 7.92748C30.7293 5.76602 30.1779 3.84773 28.4104 2.26716C26.6391 0.683215 24.4978 0.19351 22.0807 0.0888138C19.996 -0.0158819 17.9301 0.00100455 15.8492 0.00100455C13.7645 0.00100455 11.6986 -0.0158819 9.61767 0.0888138C7.20059 0.19351 5.05544 0.686593 3.28796 2.26716C1.5167 3.85111 0.969079 5.76602 0.852002 7.92748C0.734925 9.79174 0.753809 11.6391 0.753809 13.5C0.753809 15.3609 0.734925 17.2116 0.852002 19.0725C0.969079 21.234 1.52047 23.1523 3.28796 24.7328C5.05922 26.3168 7.20059 26.8065 9.61767 26.9112C11.7024 27.0159 13.7682 26.999 15.8492 26.999C17.9339 26.999 19.9997 27.0159 22.0807 26.9112C24.4978 26.8065 26.6429 26.3134 28.4104 24.7328C30.1817 23.1489 30.7293 21.234 30.8464 19.0725C30.9672 17.2116 30.9445 15.3643 30.9445 13.5V13.5ZM15.8454 20.4268C11.5589 20.4268 8.09944 17.3332 8.09944 13.5C8.09944 9.66679 11.5589 6.57319 15.8454 6.57319C20.1319 6.57319 23.5914 9.66679 23.5914 13.5C23.5914 17.3332 20.1319 20.4268 15.8454 20.4268ZM23.9086 7.90722C22.9078 7.90722 22.0996 7.18448 22.0996 6.2895C22.0996 5.39452 22.9078 4.67179 23.9086 4.67179C24.9094 4.67179 25.7176 5.39452 25.7176 6.2895C25.7179 6.50202 25.6713 6.7125 25.5805 6.90889C25.4897 7.10528 25.3565 7.28373 25.1884 7.434C25.0204 7.58427 24.8209 7.70342 24.6012 7.78462C24.3816 7.86583 24.1463 7.90749 23.9086 7.90722V7.90722Z" fill="black"/>
</svg>
