<svg width="32" height="28" viewBox="0 0 32 28" fill="none" xmlns="http://www.w3.org/2000/svg">
<path d="M7.38572 28H0.894106V9.306H7.38572V28ZM4.136 6.756C2.06047 6.756 0.376343 5.218 0.376343 3.362C0.376343 2.47034 0.772448 1.6152 1.47752 0.984707C2.18259 0.35421 3.13888 0 4.136 0C5.13312 0 6.0894 0.35421 6.79448 0.984707C7.49955 1.6152 7.89565 2.47034 7.89565 3.362C7.89565 5.218 6.21153 6.756 4.136 6.756ZM31.6815 28H25.2044V18.9C25.2044 16.731 25.1552 13.95 21.8294 13.95C18.4545 13.95 17.9367 16.306 17.9367 18.744V28H11.4518V9.306H17.6772V11.856H17.7678C18.6345 10.387 20.7514 8.837 23.9094 8.837C30.4793 8.837 31.6871 12.706 31.6871 17.731V28H31.6815Z" fill="black"/>
</svg>
